<?xml version="1.0" encoding="UTF-8" standalone="no"?>
<!DOCTYPE svg PUBLIC "-//W3C//DTD SVG 1.1//EN" "http://www.w3.org/Graphics/SVG/1.1/DTD/svg11.dtd">
<svg width="100%" height="100%" viewBox="0 0 1467 1467" version="1.1" xmlns="http://www.w3.org/2000/svg" xmlns:xlink="http://www.w3.org/1999/xlink" xml:space="preserve" xmlns:serif="http://www.serif.com/" style="fill-rule:evenodd;clip-rule:evenodd;stroke-linejoin:round;stroke-miterlimit:2;">
    <g transform="matrix(4.16667,0,0,4.16667,-297.492,-307.033)">
        <path d="M423.412,249.724C423.412,346.913 344.627,425.698 247.439,425.698C150.251,425.698 71.464,346.913 71.464,249.724C71.464,152.539 150.251,73.753 247.439,73.753C344.627,73.753 423.412,152.539 423.412,249.724Z" style="fill:rgb(77,82,88);fill-rule:nonzero;"/>
    </g>
    <g transform="matrix(4.16667,0,0,4.16667,-297.492,-307.033)">
        <path d="M219.05,411.145L218.98,411.131C215.867,410.582 212.749,409.942 209.718,409.227C209.208,409.108 208.895,408.598 209.018,408.092C209.136,407.582 209.65,407.243 210.154,407.387C213.15,408.096 216.23,408.725 219.309,409.268C219.824,409.36 220.203,409.856 220.111,410.372C220.021,410.887 219.564,411.235 219.05,411.145Z" style="fill:rgb(255,254,254);fill-rule:nonzero;"/>
    </g>
    <g transform="matrix(4.16667,0,0,4.16667,-297.492,-307.033)">
        <path d="M284.631,92.067C284.611,92.063 284.596,92.06 284.576,92.056C281.611,91.362 278.582,90.739 275.568,90.206L275.35,90.168C274.834,90.078 274.492,89.587 274.582,89.072C274.674,88.556 275.162,88.212 275.678,88.304L275.896,88.342C278.945,88.879 282.01,89.51 285.01,90.213C285.52,90.333 285.834,90.843 285.713,91.352C285.6,91.843 285.123,92.153 284.631,92.067Z" style="fill:rgb(255,254,254);fill-rule:nonzero;"/>
    </g>
    <g transform="matrix(4.16667,0,0,4.16667,-297.492,-307.033)">
        <path d="M191.449,403.776L191.382,403.752C188.412,402.672 185.453,401.499 182.593,400.27C182.111,400.063 181.891,399.504 182.099,399.03C182.304,398.547 182.87,398.301 183.341,398.534C186.169,399.75 189.093,400.905 192.031,401.975C192.522,402.153 192.809,402.707 192.628,403.2C192.45,403.692 191.941,403.956 191.449,403.776Z" style="fill:rgb(255,254,254);fill-rule:nonzero;"/>
    </g>
    <g transform="matrix(4.16667,0,0,4.16667,-297.492,-307.033)">
        <path d="M311.441,100.935C311.422,100.928 311.408,100.922 311.391,100.914C308.59,99.716 305.717,98.577 302.84,97.529L302.631,97.454C302.141,97.274 301.887,96.731 302.064,96.24C302.244,95.747 302.787,95.495 303.277,95.675L303.486,95.75C306.396,96.809 309.305,97.962 312.137,99.176C312.617,99.383 312.838,99.938 312.633,100.418C312.436,100.883 311.91,101.104 311.441,100.935Z" style="fill:rgb(255,254,254);fill-rule:nonzero;"/>
    </g>
    <g transform="matrix(4.16667,0,0,4.16667,-297.492,-307.033)">
        <path d="M165.547,391.727L165.487,391.692C162.748,390.11 160.039,388.442 157.436,386.735C156.998,386.448 156.877,385.858 157.165,385.428C157.449,384.987 158.05,384.844 158.474,385.155C161.048,386.844 163.726,388.489 166.434,390.053C166.887,390.315 167.073,390.909 166.811,391.362C166.549,391.815 166.002,391.989 165.547,391.727Z" style="fill:rgb(255,254,254);fill-rule:nonzero;"/>
    </g>
    <g transform="matrix(4.16667,0,0,4.16667,-297.492,-307.033)">
        <path d="M336.305,114.321C336.289,114.312 336.275,114.304 336.258,114.292C333.709,112.625 331.076,111.004 328.426,109.473L328.234,109.362C327.781,109.101 327.625,108.522 327.887,108.069C328.148,107.616 328.727,107.462 329.18,107.724L329.373,107.834C332.053,109.383 334.717,111.022 337.295,112.709C337.734,112.996 337.854,113.582 337.566,114.02C337.295,114.443 336.738,114.57 336.305,114.321Z" style="fill:rgb(255,254,254);fill-rule:nonzero;"/>
    </g>
    <g transform="matrix(4.16667,0,0,4.16667,-297.492,-307.033)">
        <path d="M142.133,375.362L142.079,375.317C139.657,373.286 137.277,371.17 135.01,369.038C134.628,368.676 134.612,368.079 134.97,367.704C135.328,367.319 135.943,367.284 136.307,367.661C138.55,369.772 140.901,371.858 143.295,373.866C143.696,374.204 143.775,374.821 143.438,375.223C143.104,375.624 142.534,375.7 142.133,375.362Z" style="fill:rgb(255,254,254);fill-rule:nonzero;"/>
    </g>
    <g transform="matrix(4.16667,0,0,4.16667,-297.492,-307.033)">
        <path d="M358.467,131.823C358.451,131.811 358.439,131.8 358.424,131.786C356.205,129.701 353.893,127.647 351.549,125.68L351.379,125.537C350.979,125.201 350.926,124.604 351.262,124.204C351.598,123.804 352.193,123.751 352.594,124.087L352.766,124.229C355.137,126.221 357.475,128.297 359.721,130.407C360.104,130.767 360.121,131.364 359.762,131.743C359.418,132.113 358.848,132.144 358.467,131.823Z" style="fill:rgb(255,254,254);fill-rule:nonzero;"/>
    </g>
    <g transform="matrix(4.16667,0,0,4.16667,-297.492,-307.033)">
        <path d="M121.916,355.18L121.87,355.125C119.839,352.706 117.862,350.207 116,347.715C115.687,347.293 115.774,346.702 116.192,346.393C116.611,346.077 117.223,346.149 117.517,346.582C119.356,349.051 121.311,351.514 123.32,353.909C123.657,354.311 123.627,354.932 123.227,355.27C122.827,355.604 122.253,355.579 121.916,355.18Z" style="fill:rgb(255,254,254);fill-rule:nonzero;"/>
    </g>
    <g transform="matrix(4.16667,0,0,4.16667,-297.492,-307.033)">
        <path d="M377.254,152.907C377.24,152.892 377.23,152.88 377.219,152.863C375.395,150.426 373.475,148 371.506,145.655L371.363,145.485C371.027,145.084 371.08,144.49 371.48,144.152C371.881,143.816 372.479,143.868 372.814,144.27L372.957,144.439C374.947,146.811 376.889,149.263 378.734,151.729C379.049,152.149 378.961,152.741 378.543,153.054C378.139,153.358 377.572,153.288 377.254,152.907Z" style="fill:rgb(255,254,254);fill-rule:nonzero;"/>
    </g>
    <g transform="matrix(4.16667,0,0,4.16667,-297.492,-307.033)">
        <path d="M105.509,331.793L105.474,331.733C103.893,328.995 102.38,326.192 100.978,323.413C100.744,322.946 100.933,322.375 101.398,322.147C101.866,321.909 102.456,322.084 102.667,322.563C104.053,325.315 105.549,328.079 107.112,330.788C107.374,331.241 107.237,331.848 106.784,332.11C106.331,332.372 105.771,332.247 105.509,331.793Z" style="fill:rgb(255,254,254);fill-rule:nonzero;"/>
    </g>
    <g transform="matrix(4.16667,0,0,4.16667,-297.492,-307.033)">
        <path d="M392.092,176.933C392.082,176.915 392.074,176.902 392.064,176.885C390.691,174.166 389.223,171.445 387.691,168.794L387.58,168.602C387.318,168.148 387.473,167.57 387.926,167.309C388.379,167.047 388.957,167.203 389.219,167.656L389.33,167.848C390.879,170.528 392.365,173.28 393.754,176.031C393.99,176.5 393.803,177.066 393.336,177.303C392.885,177.531 392.34,177.364 392.092,176.933Z" style="fill:rgb(255,254,254);fill-rule:nonzero;"/>
    </g>
    <g transform="matrix(4.16667,0,0,4.16667,-297.492,-307.033)">
        <path d="M93.414,305.913L93.39,305.848C92.309,302.877 91.305,299.856 90.409,296.875C90.256,296.374 90.542,295.846 91.041,295.7C91.543,295.545 92.092,295.823 92.218,296.331C93.106,299.28 94.099,302.262 95.168,305.202C95.347,305.692 95.107,306.268 94.615,306.448C94.123,306.625 93.593,306.407 93.414,305.913Z" style="fill:rgb(255,254,254);fill-rule:nonzero;"/>
    </g>
    <g transform="matrix(4.16667,0,0,4.16667,-297.492,-307.033)">
        <path d="M402.535,203.17C402.527,203.151 402.521,203.138 402.518,203.117C401.637,200.202 400.662,197.268 399.615,194.392L399.539,194.184C399.359,193.69 399.611,193.149 400.104,192.97C400.596,192.791 401.137,193.043 401.318,193.536L401.393,193.744C402.451,196.653 403.438,199.621 404.328,202.571C404.479,203.073 404.195,203.6 403.695,203.749C403.213,203.897 402.705,203.639 402.535,203.17Z" style="fill:rgb(255,254,254);fill-rule:nonzero;"/>
    </g>
    <g transform="matrix(4.16667,0,0,4.16667,-297.492,-307.033)">
        <path d="M85.995,278.329L85.982,278.258C85.433,275.145 84.97,271.995 84.604,268.905C84.542,268.383 84.915,267.915 85.432,267.856C85.952,267.791 86.445,268.161 86.481,268.682C86.843,271.741 87.303,274.85 87.846,277.928C87.938,278.444 87.601,278.969 87.085,279.061C86.57,279.153 86.085,278.842 85.995,278.329Z" style="fill:rgb(255,254,254);fill-rule:nonzero;"/>
    </g>
    <g transform="matrix(4.16667,0,0,4.16667,-297.492,-307.033)">
        <path d="M408.26,230.822C408.256,230.802 408.254,230.787 408.252,230.767C407.891,227.744 407.441,224.685 406.908,221.67L406.871,221.451C406.779,220.936 407.123,220.446 407.637,220.355C408.152,220.266 408.643,220.607 408.734,221.124L408.771,221.341C409.311,224.39 409.768,227.484 410.131,230.544C410.191,231.064 409.82,231.535 409.303,231.595C408.803,231.658 408.348,231.314 408.26,230.822Z" style="fill:rgb(255,254,254);fill-rule:nonzero;"/>
    </g>
    <g transform="matrix(4.16667,0,0,4.16667,-297.492,-307.033)">
        <path d="M83.479,249.871L83.479,249.8C83.479,246.638 83.569,243.457 83.745,240.349C83.775,239.826 84.224,239.427 84.742,239.46C85.266,239.488 85.689,239.937 85.633,240.458C85.457,243.533 85.372,246.673 85.372,249.8C85.372,250.324 84.949,250.783 84.425,250.783C83.901,250.783 83.479,250.394 83.479,249.871Z" style="fill:rgb(255,254,254);fill-rule:nonzero;"/>
    </g>
    <g transform="matrix(4.16667,0,0,4.16667,-297.492,-307.033)">
        <path d="M409.098,259.049L409.098,258.994C409.268,255.953 409.355,252.861 409.355,249.8L409.355,249.58C409.355,249.056 409.779,248.632 410.301,248.632C410.824,248.632 411.248,249.056 411.248,249.58L411.248,249.8C411.248,252.896 411.16,256.023 410.988,259.099C410.959,259.623 410.512,260.02 409.99,259.991C409.486,259.965 409.098,259.549 409.098,259.049Z" style="fill:rgb(255,254,254);fill-rule:nonzero;"/>
    </g>
    <g transform="matrix(4.16667,0,0,4.16667,-297.492,-307.033)">
        <path d="M85.944,221.41L85.957,221.34C86.505,218.227 87.147,215.108 87.861,212.079C87.981,211.569 88.492,211.255 88.997,211.377C89.506,211.495 89.846,212.01 89.701,212.513C88.993,215.512 88.363,218.59 87.821,221.67C87.729,222.185 87.233,222.562 86.717,222.472C86.202,222.38 85.854,221.926 85.944,221.41Z" style="fill:rgb(255,254,254);fill-rule:nonzero;"/>
    </g>
    <g transform="matrix(4.16667,0,0,4.16667,-297.492,-307.033)">
        <path d="M405.023,286.993C405.027,286.971 405.029,286.957 405.033,286.936C405.729,283.973 406.352,280.944 406.883,277.928L406.92,277.711C407.012,277.196 407.502,276.852 408.018,276.942C408.533,277.034 408.877,277.524 408.785,278.04L408.748,278.256C408.209,281.307 407.58,284.37 406.875,287.37C406.756,287.879 406.246,288.194 405.738,288.073C405.246,287.961 404.936,287.483 405.023,286.993Z" style="fill:rgb(255,254,254);fill-rule:nonzero;"/>
    </g>
    <g transform="matrix(4.16667,0,0,4.16667,-297.492,-307.033)">
        <path d="M93.314,193.81L93.337,193.743C94.418,190.772 95.591,187.813 96.82,184.954C97.028,184.472 97.585,184.252 98.061,184.459C98.543,184.664 98.789,185.23 98.557,185.701C97.34,188.529 96.186,191.453 95.116,194.392C94.937,194.884 94.382,195.169 93.89,194.989C93.398,194.811 93.135,194.302 93.314,193.81Z" style="fill:rgb(255,254,254);fill-rule:nonzero;"/>
    </g>
    <g transform="matrix(4.16667,0,0,4.16667,-297.492,-307.033)">
        <path d="M396.156,313.803C396.162,313.784 396.168,313.77 396.176,313.75C397.375,310.952 398.514,308.077 399.563,305.202L399.637,304.993C399.816,304.5 400.359,304.247 400.85,304.426C401.342,304.604 401.596,305.149 401.416,305.639L401.34,305.848C400.281,308.758 399.129,311.665 397.914,314.497C397.707,314.979 397.152,315.2 396.672,314.993C396.207,314.797 395.986,314.27 396.156,313.803Z" style="fill:rgb(255,254,254);fill-rule:nonzero;"/>
    </g>
    <g transform="matrix(4.16667,0,0,4.16667,-297.492,-307.033)">
        <path d="M105.363,167.908L105.398,167.847C106.979,165.108 108.648,162.397 110.354,159.795C110.642,159.356 111.23,159.236 111.661,159.523C112.102,159.81 112.245,160.409 111.936,160.832C110.245,163.407 108.6,166.086 107.037,168.793C106.775,169.246 106.18,169.431 105.727,169.169C105.273,168.907 105.101,168.361 105.363,167.908Z" style="fill:rgb(255,254,254);fill-rule:nonzero;"/>
    </g>
    <g transform="matrix(4.16667,0,0,4.16667,-297.492,-307.033)">
        <path d="M382.768,338.666C382.777,338.649 382.785,338.635 382.797,338.618C384.465,336.069 386.086,333.436 387.615,330.786L387.727,330.592C387.988,330.139 388.566,329.987 389.02,330.247C389.473,330.508 389.627,331.086 389.365,331.54L389.254,331.731C387.707,334.413 386.066,337.077 384.379,339.655C384.094,340.092 383.506,340.213 383.07,339.926C382.645,339.653 382.518,339.096 382.768,338.666Z" style="fill:rgb(255,254,254);fill-rule:nonzero;"/>
    </g>
    <g transform="matrix(4.16667,0,0,4.16667,-297.492,-307.033)">
        <path d="M121.728,144.492L121.773,144.438C123.805,142.016 125.919,139.637 128.052,137.368C128.412,136.988 129.011,136.971 129.386,137.329C129.771,137.687 129.806,138.303 129.429,138.666C127.317,140.907 125.232,143.259 123.223,145.655C122.886,146.056 122.268,146.135 121.866,145.799C121.466,145.462 121.391,144.893 121.728,144.492Z" style="fill:rgb(255,254,254);fill-rule:nonzero;"/>
    </g>
    <g transform="matrix(4.16667,0,0,4.16667,-297.492,-307.033)">
        <path d="M365.266,360.827C365.279,360.811 365.289,360.801 365.303,360.786C367.389,358.565 369.441,356.254 371.41,353.909L371.551,353.739C371.889,353.338 372.484,353.286 372.885,353.622C373.285,353.957 373.338,354.553 373.002,354.956L372.859,355.124C370.869,357.497 368.791,359.834 366.682,362.081C366.322,362.461 365.725,362.481 365.346,362.122C364.975,361.778 364.945,361.207 365.266,360.827Z" style="fill:rgb(255,254,254);fill-rule:nonzero;"/>
    </g>
    <g transform="matrix(4.16667,0,0,4.16667,-297.492,-307.033)">
        <path d="M141.91,124.276L141.964,124.23C144.386,122.199 146.882,120.223 149.375,118.36C149.797,118.047 150.389,118.135 150.697,118.553C151.013,118.972 150.941,119.584 150.507,119.877C148.037,121.717 145.575,123.672 143.182,125.681C142.78,126.018 142.157,125.987 141.821,125.588C141.485,125.187 141.51,124.613 141.91,124.276Z" style="fill:rgb(255,254,254);fill-rule:nonzero;"/>
    </g>
    <g transform="matrix(4.16667,0,0,4.16667,-297.492,-307.033)">
        <path d="M344.184,379.614C344.199,379.6 344.209,379.592 344.227,379.579C346.664,377.756 349.09,375.836 351.434,373.868L351.605,373.725C352.006,373.389 352.6,373.442 352.938,373.842C353.273,374.243 353.221,374.838 352.82,375.174L352.65,375.317C350.279,377.309 347.826,379.249 345.359,381.094C344.939,381.409 344.348,381.321 344.035,380.903C343.73,380.5 343.801,379.934 344.184,379.614Z" style="fill:rgb(255,254,254);fill-rule:nonzero;"/>
    </g>
    <g transform="matrix(4.16667,0,0,4.16667,-297.492,-307.033)">
        <path d="M165.296,107.871L165.357,107.836C168.095,106.255 170.896,104.742 173.676,103.34C174.144,103.105 174.713,103.294 174.944,103.76C175.181,104.228 175.005,104.817 174.526,105.028C171.775,106.414 169.011,107.911 166.304,109.475C165.851,109.736 165.243,109.599 164.981,109.145C164.719,108.692 164.843,108.133 165.296,107.871Z" style="fill:rgb(255,254,254);fill-rule:nonzero;"/>
    </g>
    <g transform="matrix(4.16667,0,0,4.16667,-297.492,-307.033)">
        <path d="M320.156,394.454C320.174,394.444 320.188,394.436 320.205,394.428C322.924,393.055 325.645,391.584 328.297,390.053L328.488,389.944C328.941,389.68 329.518,389.836 329.779,390.29C330.041,390.743 329.887,391.321 329.434,391.582L329.242,391.692C326.561,393.241 323.809,394.727 321.059,396.116C320.59,396.354 320.023,396.165 319.787,395.698C319.557,395.249 319.727,394.704 320.156,394.454Z" style="fill:rgb(255,254,254);fill-rule:nonzero;"/>
    </g>
    <g transform="matrix(4.16667,0,0,4.16667,-297.492,-307.033)">
        <path d="M191.176,95.775L191.241,95.75C194.213,94.669 197.235,93.664 200.216,92.769C200.717,92.617 201.244,92.902 201.391,93.401C201.545,93.903 201.268,94.453 200.759,94.579C197.809,95.466 194.829,96.459 191.89,97.529C191.397,97.707 190.822,97.467 190.644,96.975C190.464,96.483 190.684,95.954 191.176,95.775Z" style="fill:rgb(255,254,254);fill-rule:nonzero;"/>
    </g>
    <g transform="matrix(4.16667,0,0,4.16667,-297.492,-307.033)">
        <path d="M293.918,404.895C293.939,404.887 293.951,404.881 293.971,404.877C296.887,403.997 299.822,403.022 302.699,401.975L302.906,401.899C303.398,401.719 303.941,401.971 304.119,402.463C304.299,402.956 304.045,403.497 303.555,403.678L303.346,403.752C300.436,404.811 297.469,405.797 294.518,406.688C294.018,406.838 293.49,406.555 293.34,406.055C293.191,405.573 293.451,405.065 293.918,404.895Z" style="fill:rgb(255,254,254);fill-rule:nonzero;"/>
    </g>
    <g transform="matrix(4.16667,0,0,4.16667,-297.492,-307.033)">
        <path d="M218.763,88.357L218.833,88.344C221.946,87.795 225.097,87.332 228.187,86.966C228.707,86.905 229.177,87.277 229.234,87.794C229.298,88.315 228.93,88.808 228.408,88.844C225.35,89.206 222.24,89.666 219.161,90.208C218.646,90.3 218.121,89.963 218.03,89.447C217.94,88.932 218.247,88.448 218.763,88.357Z" style="fill:rgb(255,254,254);fill-rule:nonzero;"/>
    </g>
    <g transform="matrix(4.16667,0,0,4.16667,-297.492,-307.033)">
        <path d="M266.268,410.622C266.287,410.62 266.301,410.616 266.322,410.616C269.346,410.252 272.406,409.803 275.42,409.27L275.639,409.233C276.154,409.143 276.645,409.485 276.734,409.999C276.826,410.516 276.482,411.004 275.969,411.096L275.748,411.135C272.701,411.672 269.605,412.129 266.545,412.493C266.025,412.555 265.557,412.184 265.494,411.665C265.434,411.165 265.777,410.709 266.268,410.622Z" style="fill:rgb(255,254,254);fill-rule:nonzero;"/>
    </g>
    <g transform="matrix(4.16667,0,0,4.16667,-297.492,-307.033)">
        <path d="M247.51,413.61L247.439,413.61C244.278,413.61 241.096,413.52 237.988,413.344C237.465,413.313 237.067,412.866 237.1,412.346C237.128,411.823 237.576,411.401 238.098,411.456C241.172,411.631 244.313,411.717 247.439,411.717C247.963,411.717 248.422,412.141 248.422,412.665C248.422,413.188 248.034,413.61 247.51,413.61Z" style="fill:rgb(255,254,254);fill-rule:nonzero;"/>
    </g>
    <g transform="matrix(4.16667,0,0,4.16667,-297.492,-307.033)">
        <path d="M256.687,87.993C256.668,87.993 256.653,87.993 256.633,87.991C253.592,87.821 250.501,87.733 247.439,87.733L247.219,87.733C246.695,87.733 246.271,87.31 246.271,86.788C246.271,86.264 246.695,85.841 247.219,85.841L247.439,85.841C250.536,85.841 253.662,85.929 256.738,86.102C257.262,86.13 257.66,86.578 257.63,87.1C257.604,87.603 257.187,87.993 256.687,87.993Z" style="fill:rgb(255,254,254);fill-rule:nonzero;"/>
    </g>
    <g transform="matrix(4.16667,0,0,4.16667,-297.492,-307.033)">
        <clipPath id="_clip1">
            <path d="M397.867,249.724C397.867,332.805 330.516,400.159 247.439,400.159C164.358,400.159 97.007,332.805 97.007,249.724C97.007,166.646 164.358,99.297 247.439,99.297C330.516,99.297 397.867,166.646 397.867,249.724Z"/>
        </clipPath>
        <g clip-path="url(#_clip1)">
            <rect x="-566.694" y="-564.403" width="1628.26" height="1628.26" style="fill:rgb(246,188,98);fill-rule:nonzero;"/>
            <path d="M588.719,419.374C593.793,415.51 594.063,408.012 589.246,403.803C589.246,403.803 345.986,160.543 345.982,160.543C341.779,155.714 334.246,155.969 330.379,161.072C317.574,153.895 301.398,154.969 289.611,164.293C287.795,165.728 287.174,168.402 288.732,170.687C294.492,179.119 300.973,187.006 308.074,194.279L304.559,197.795C301.135,194.559 297.428,191.621 293.492,188.998C292.818,188.227 261.547,156.838 260.686,156.252C260.025,155.282 258.918,154.648 257.657,154.648C228.037,154.648 266.834,154.648 237.219,154.648C233.613,154.648 232.195,159.323 235.162,161.339C235.403,161.694 243.674,169.927 243.921,170.098C244.09,170.345 244.295,170.562 244.516,170.76L244.516,175.142C236.148,175.43 228.104,176.973 220.539,179.557C220.521,179.539 205.265,164.293 205.265,164.293C193.504,154.989 177.367,153.902 164.576,161.031C163.152,159.599 160.847,157.081 156.495,157.073C150.939,157.064 146.42,161.564 146.417,167.125C146.415,171.294 148.683,173.547 150.357,175.211C143.227,187.934 144.237,203.991 153.408,215.762C153.667,216.097 153.971,216.368 154.288,216.611C154.568,216.972 154.756,217.199 155.262,217.587C155.532,217.939 155.738,218.176 156.237,218.559C156.411,218.787 165.74,228.117 165.968,228.291C166.24,228.644 166.445,228.884 166.941,229.265C167.172,229.566 168.452,230.869 168.772,231.126C158.832,259.922 165.226,292.954 187.608,316.112L177.345,333.891C175.539,337.014 176.32,340.915 179.013,343.133C179.026,343.151 422.266,586.387 422.279,586.399C425.531,590.342 431.67,589.77 434.189,585.411L443.051,570.051C470.262,589.68 507.229,591.233 536.246,572.786C536.58,573.192 549.469,586.077 549.861,586.403C552.086,589.096 555.982,589.872 559.105,588.073C562.588,586.063 563.787,581.614 561.771,578.129L551.506,560.35C582.506,528.28 582.699,477.502 551.98,445.202L555.492,441.688C563.732,449.706 573.521,457.381 579.195,461.032C581.297,462.461 584.145,462.008 585.705,460C594.895,448.206 595.893,432.108 588.719,419.374Z" style="fill:rgb(249,160,77);fill-rule:nonzero;"/>
            <path d="M192.639,200.114L189.464,203.294L179.502,193.33L182.676,190.152L192.639,200.114Z" style="fill:rgb(234,233,233);fill-rule:nonzero;"/>
            <path d="M189.95,341.168C187.941,344.653 183.488,345.842 180.008,343.834C176.528,341.823 175.331,337.372 177.345,333.891L200.13,294.424C202.14,290.944 206.588,289.752 210.069,291.76C213.55,293.772 214.747,298.219 212.734,301.704L189.95,341.168Z" style="fill:rgb(77,83,89);fill-rule:nonzero;"/>
            <path d="M304.924,341.168C306.934,344.653 311.387,345.842 314.867,343.834C318.348,341.823 319.547,337.372 317.531,333.891L294.746,294.424C292.736,290.944 288.285,289.752 284.807,291.76C281.324,293.772 280.131,298.219 282.143,301.704L304.924,341.168Z" style="fill:rgb(53,56,62);fill-rule:nonzero;"/>
            <path d="M166.546,167.146C166.534,172.703 162.026,177.204 156.474,177.191C150.908,177.187 146.415,172.677 146.417,167.125C146.42,161.564 150.939,157.064 156.495,157.073C162.055,157.084 166.552,161.591 166.546,167.146Z" style="fill:rgb(101,190,224);fill-rule:nonzero;"/>
            <rect x="244.516" y="159.279" width="5.843" height="34.594" style="fill:rgb(77,83,89);fill-rule:nonzero;"/>
            <rect x="247.438" y="159.279" width="2.921" height="34.594" style="fill:rgb(53,56,62);fill-rule:nonzero;"/>
            <path d="M159.802,216.87C157.769,218.251 155.025,217.823 153.506,215.892C142.141,201.436 143.141,180.441 156.483,167.133C169.827,153.82 190.836,152.88 205.263,164.293C207.178,165.808 207.602,168.548 206.222,170.566L206.138,170.689C193.761,188.818 178.085,204.454 159.926,216.786L159.802,216.87Z" style="fill:rgb(77,83,89);fill-rule:nonzero;"/>
            <path d="M302.236,200.114L305.412,203.294L315.371,193.33L312.199,190.152L302.236,200.114Z" style="fill:rgb(201,202,204);fill-rule:nonzero;"/>
            <path d="M328.33,167.146C328.342,172.703 332.85,177.204 338.402,177.191C343.967,177.187 348.459,172.677 348.459,167.125C348.453,161.564 343.936,157.064 338.379,157.073C332.82,157.084 328.324,161.591 328.33,167.146Z" style="fill:rgb(30,162,203);fill-rule:nonzero;"/>
            <path d="M335.016,216.833C337.084,218.236 339.877,217.797 341.418,215.83C352.73,201.377 351.713,180.422 338.393,167.136C325.047,153.82 304.039,152.88 289.613,164.293C287.695,165.808 287.275,168.548 288.652,170.566L288.732,170.687C301.111,188.818 316.793,204.457 334.955,216.791L335.016,216.833Z" style="fill:rgb(53,56,62);fill-rule:nonzero;"/>
            <path d="M330.643,258.295C330.643,304.247 293.391,341.499 247.438,341.499C201.484,341.499 164.232,304.247 164.232,258.295C164.232,212.337 201.484,175.085 247.438,175.085C293.391,175.085 330.643,212.337 330.643,258.295Z" style="fill:rgb(101,190,224);fill-rule:nonzero;"/>
            <path d="M247.438,175.085L247.438,341.499C293.391,341.499 330.643,304.247 330.643,258.295C330.643,212.337 293.391,175.085 247.438,175.085Z" style="fill:rgb(30,162,203);fill-rule:nonzero;"/>
            <path d="M321.699,258.295C321.699,299.305 288.451,332.551 247.438,332.551C206.424,332.551 173.177,299.305 173.177,258.295C173.177,217.279 206.424,184.031 247.438,184.031C288.451,184.031 321.699,217.279 321.699,258.295Z" style="fill:rgb(234,233,233);fill-rule:nonzero;"/>
            <path d="M247.438,184.031L247.438,332.551C288.451,332.551 321.699,299.305 321.699,258.295C321.699,217.279 288.451,184.031 247.438,184.031Z" style="fill:rgb(201,202,204);fill-rule:nonzero;"/>
            <path d="M279.01,259.158L251.491,265.672L251.491,252.638L279.01,259.158Z" style="fill:rgb(53,56,62);fill-rule:nonzero;"/>
            <path d="M247.438,211.994L253.957,259.01L240.92,259.01L247.438,211.994Z" style="fill:rgb(77,83,89);fill-rule:nonzero;"/>
            <path d="M247.438,211.994L247.438,259.01L253.957,259.01L247.438,211.994Z" style="fill:rgb(53,56,62);fill-rule:nonzero;"/>
            <path d="M255.029,198.097C255.029,202.29 251.633,205.687 247.438,205.687C243.246,205.687 239.847,202.29 239.847,198.097C239.847,193.901 243.246,190.505 247.438,190.505C251.633,190.505 255.029,193.901 255.029,198.097Z" style="fill:rgb(243,122,110);fill-rule:nonzero;"/>
            <path d="M247.438,190.505L247.438,205.687C251.633,205.687 255.029,202.29 255.029,198.097C255.029,193.901 251.633,190.505 247.438,190.505Z" style="fill:rgb(213,85,82);fill-rule:nonzero;"/>
            <path d="M255.029,318.489C255.029,314.295 251.633,310.899 247.438,310.899C243.246,310.899 239.847,314.295 239.847,318.489C239.847,322.682 243.246,326.079 247.438,326.079C251.633,326.079 255.029,322.682 255.029,318.489Z" style="fill:rgb(243,122,110);fill-rule:nonzero;"/>
            <path d="M247.438,310.899L247.438,326.079C251.633,326.079 255.029,322.682 255.029,318.489C255.029,314.295 251.633,310.899 247.438,310.899Z" style="fill:rgb(213,85,82);fill-rule:nonzero;"/>
            <path d="M315.344,258.295C315.344,254.099 311.947,250.701 307.754,250.701C303.561,250.701 300.162,254.099 300.162,258.295C300.162,262.487 303.561,265.883 307.754,265.883C311.947,265.883 315.344,262.487 315.344,258.295Z" style="fill:rgb(213,85,82);fill-rule:nonzero;"/>
            <path d="M179.531,258.295C179.531,254.099 182.928,250.701 187.122,250.701C191.314,250.701 194.714,254.099 194.714,258.295C194.714,262.487 191.314,265.883 187.122,265.883C182.928,265.883 179.531,262.487 179.531,258.295Z" style="fill:rgb(243,122,110);fill-rule:nonzero;"/>
            <path d="M258.397,258.295C258.397,264.342 253.485,269.252 247.438,269.252C241.391,269.252 236.477,264.342 236.477,258.295C236.477,252.242 241.391,247.332 247.438,247.332C253.485,247.332 258.397,252.242 258.397,258.295Z" style="fill:rgb(243,122,110);fill-rule:nonzero;"/>
            <path d="M247.438,247.332L247.438,269.252C253.485,269.252 258.397,264.342 258.397,258.295C258.397,252.242 253.485,247.332 247.438,247.332Z" style="fill:rgb(213,85,82);fill-rule:nonzero;"/>
            <path d="M254.3,258.295C254.3,262.081 251.229,265.153 247.438,265.153C243.647,265.153 240.575,262.081 240.575,258.295C240.575,254.503 243.647,251.431 247.438,251.431C251.229,251.431 254.3,254.503 254.3,258.295Z" style="fill:rgb(234,233,233);fill-rule:nonzero;"/>
            <path d="M247.438,251.431L247.438,265.153C251.229,265.153 254.3,262.081 254.3,258.295C254.3,254.503 251.229,251.431 247.438,251.431Z" style="fill:rgb(201,202,204);fill-rule:nonzero;"/>
            <path d="M261.32,158.31C261.32,160.334 259.68,161.975 257.657,161.975L237.219,161.975C235.193,161.975 233.556,160.334 233.556,158.31C233.556,156.284 235.193,154.648 237.219,154.648L257.657,154.648C259.68,154.648 261.32,156.284 261.32,158.31Z" style="fill:rgb(243,122,110);fill-rule:nonzero;"/>
            <path d="M247.438,154.648L247.438,161.975L257.657,161.975C259.68,161.975 261.32,160.334 261.32,158.31C261.32,156.284 259.68,154.648 257.657,154.648L247.438,154.648Z" style="fill:rgb(213,85,82);fill-rule:nonzero;"/>
        </g>
    </g>
</svg>
