<?xml version="1.0" encoding="UTF-8" standalone="no"?>
<!DOCTYPE svg PUBLIC "-//W3C//DTD SVG 1.1//EN" "http://www.w3.org/Graphics/SVG/1.1/DTD/svg11.dtd">
<svg width="100%" height="100%" viewBox="0 0 1200 1200" version="1.1" xmlns="http://www.w3.org/2000/svg" xmlns:xlink="http://www.w3.org/1999/xlink" xml:space="preserve" xmlns:serif="http://www.serif.com/" style="fill-rule:evenodd;clip-rule:evenodd;stroke-linejoin:round;stroke-miterlimit:2;">
    <g transform="matrix(4.16667,0,0,4.16667,-77.0833,-77.0833)">
        <clipPath id="_clip1">
            <circle cx="162.5" cy="162.5" r="143.92"/>
        </clipPath>
        <g clip-path="url(#_clip1)">
            <rect x="0" y="0" width="325" height="325" style="fill:rgb(101,198,228);"/>
            <clipPath id="_clip2">
                <rect x="0" y="0" width="325" height="325"/>
            </clipPath>
            <g clip-path="url(#_clip2)">
                <path d="M226.465,99.226C216.933,89.199 201.567,88.064 189.15,97.527C181.023,89.43 177.871,85.422 170.755,82.83C159.696,78.785 146.743,82.504 138.664,94.057C137.713,93.162 137.307,92.829 136.747,92.372L136.747,92.371C130.293,86.993 119.479,82.753 108.603,86.708L108.603,86.709C101.485,89.22 96.242,95.444 95.86,96.586C92.359,101.565 90.133,108.087 90.015,115.367L90.013,115.367C90.013,123.998 92.759,131.892 95.673,136.263C97.379,139.111 99.394,141.663 101.645,143.868L101.645,143.869C101.646,143.871 134.273,176.498 134.274,176.499C134.277,176.502 134.313,176.535 134.322,176.543C133.815,179.229 133.117,182.042 132.221,185.021C130.507,190.718 131.531,197.015 134.962,201.864C139.447,208.208 141.357,214.245 141.45,220.421C141.237,220.125 140.219,219.121 139.917,218.897C139.271,217.984 138.04,217.31 136.742,217.31C133.02,217.31 134.726,224.146 134.726,224.146L137.921,227.359C137.921,227.359 131.442,230.696 128.203,232.282C127.487,232.633 128.576,233.688 128.576,233.688L131.718,237.041C131.718,237.041 130.962,237.848 130.58,238.244C130.134,238.709 130.442,239.525 131.16,239.493C131.123,240.144 327.794,436.899 331.95,438.745C333.918,434.299 335.511,430.102 336.566,426.049C336.662,426.135 336.763,426.216 336.866,426.293C337.068,426.578 337.227,426.762 337.644,427.071C337.845,427.354 338.007,427.541 338.421,427.849C339.065,428.759 340.296,429.435 341.596,429.436C345.308,429.436 346.532,424.604 343.61,422.597C343.348,422.247 343.224,422.088 342.835,421.819C342.564,421.463 342.446,421.312 342.057,421.041C341.789,420.689 341.671,420.535 341.281,420.266C341.032,419.936 340.927,419.8 340.601,419.56C349.537,413.735 356.521,406.405 357.439,395.393C357.896,389.927 360.91,384.865 365.506,381.854C376.934,374.372 385.112,365.914 388.072,352.695C417.243,362.866 446.996,318.889 418.35,291.109C418.313,291.07 226.502,99.261 226.465,99.226Z" style="fill:rgb(29,164,196);fill-rule:nonzero;"/>
                <path d="M133.656,185.455C139.916,164.65 136.878,151.004 122.445,135.105L121.343,136.105C135.545,151.747 138.395,164.549 132.233,185.027C130.52,190.723 131.544,197.02 134.974,201.869C144.652,215.56 142.391,227.814 135.604,243.146L136.962,243.75C143.961,227.939 146.272,215.275 136.188,201.01C133.019,196.531 132.073,190.717 133.656,185.455Z" style="fill:rgb(78,83,88);fill-rule:nonzero;"/>
                <path d="M122.25,135.282L123.403,138.456C132.479,149.146 136.133,158.725 135.145,170.714L136.268,173.799C138.247,159.125 134.002,147.836 122.445,135.105L122.25,135.282Z" style="fill:rgb(31,43,47);fill-rule:nonzero;"/>
                <path d="M158.725,128.114C158.344,128.269 158.16,128.702 158.315,129.083C166.303,148.645 164.594,161.648 151.791,178.776C148.23,183.54 147.036,189.806 148.598,195.537C153.004,211.716 142.223,226.169 130.593,238.25C130.309,238.545 130.317,239.016 130.613,239.301C130.757,239.438 130.942,239.508 131.129,239.508C131.322,239.508 131.518,239.432 131.663,239.28C143.654,226.824 154.621,212.004 150.032,195.147C148.588,189.854 149.691,184.065 152.98,179.665C165.99,162.264 167.808,148.402 159.691,128.521C159.537,128.141 159.103,127.957 158.725,128.114Z" style="fill:rgb(78,83,88);fill-rule:nonzero;"/>
                <path d="M159.694,132.663C164.236,145.262 164.373,155.211 159.694,165.73L159.694,169.096C166.308,156.187 166.105,144.235 159.694,128.528L159.694,132.663Z" style="fill:rgb(31,43,47);fill-rule:nonzero;"/>
                <path d="M193.547,140.381C193.137,140.396 192.817,140.742 192.833,141.151C193.646,162.266 187.594,173.9 169.705,185.616C164.729,188.876 161.464,194.355 160.971,200.274C159.577,216.984 143.276,224.912 128.216,232.287C127.848,232.467 127.694,232.912 127.876,233.281C127.964,233.461 128.115,233.589 128.289,233.652C128.472,233.718 128.682,233.713 128.869,233.62C144.397,226.018 160.999,217.807 162.451,200.398C162.907,194.932 165.923,189.87 170.519,186.859C188.694,174.957 195.145,162.553 194.318,141.095C194.302,140.685 193.956,140.363 193.547,140.381Z" style="fill:rgb(78,83,88);fill-rule:nonzero;"/>
                <path d="M192.889,145.979C192.695,158.536 189.55,167.546 182.151,175.48L180.967,178.732C191.019,169.154 194.817,158.17 194.342,141.986L192.889,145.979Z" style="fill:rgb(31,43,47);fill-rule:nonzero;"/>
                <path d="M108.582,86.725C93.117,92.363 85.882,111.479 92.423,129.422C98.964,147.366 116.805,157.341 132.269,151.703C147.734,146.066 154.967,126.949 148.426,109.007C141.885,91.064 124.045,81.088 108.582,86.725Z" style="fill:rgb(101,198,228);fill-rule:nonzero;"/>
                <path d="M122.421,159.348L132.188,163.896L131.853,151.855L122.421,159.348Z" style="fill:rgb(243,117,106);fill-rule:nonzero;"/>
                <path d="M108.615,86.715L132.269,151.703C147.734,146.066 154.967,126.949 148.426,109.007C141.889,91.077 124.071,81.103 108.615,86.715Z" style="fill:rgb(29,164,196);fill-rule:nonzero;"/>
                <path d="M108.582,86.725C105.383,87.892 102.543,89.642 100.096,91.832C103.015,94.503 107.279,95.504 111.253,94.055C115.228,92.606 117.847,89.096 118.361,85.173C115.08,85.071 111.779,85.56 108.582,86.725Z" style="fill:rgb(243,117,106);fill-rule:nonzero;"/>
                <path d="M123.789,92.451C125.092,96.024 129.047,97.866 132.621,96.562C134.635,95.829 136.098,94.252 136.759,92.375C133.095,89.387 128.964,87.238 124.651,86.096C123.383,87.881 122.982,90.238 123.789,92.451Z" style="fill:rgb(217,65,71);fill-rule:nonzero;"/>
                <path d="M95.875,96.587C93.31,100.234 91.53,104.539 90.65,109.186C92.363,110.196 94.499,110.461 96.511,109.727C100.087,108.423 101.928,104.469 100.625,100.896C99.819,98.682 97.995,97.136 95.875,96.587Z" style="fill:rgb(243,117,106);fill-rule:nonzero;"/>
                <path d="M105.917,135.524C102.503,136.77 100.678,140.434 101.656,143.875C103.645,145.823 105.814,147.5 108.107,148.878C108.945,148.898 109.802,148.772 110.637,148.469C114.211,147.165 116.052,143.211 114.749,139.637C113.446,136.063 109.492,134.221 105.917,135.524Z" style="fill:rgb(243,117,106);fill-rule:nonzero;"/>
                <path d="M142.025,122.361C138.451,123.664 136.609,127.618 137.913,131.192C139.216,134.768 143.17,136.607 146.745,135.306C147.579,135.001 148.315,134.546 148.943,133.99C149.813,131.461 150.393,128.781 150.66,126.009C149.195,122.746 145.439,121.116 142.025,122.361Z" style="fill:rgb(217,65,71);fill-rule:nonzero;"/>
                <path d="M115.516,105.747C109.83,107.82 106.899,114.111 108.973,119.797C111.046,125.484 117.336,128.412 123.022,126.34C128.709,124.267 131.638,117.977 129.563,112.29C127.492,106.603 121.202,103.674 115.516,105.747Z" style="fill:rgb(243,117,106);fill-rule:nonzero;"/>
                <path d="M90.026,115.372C89.954,119.962 90.714,124.732 92.423,129.422C93.311,131.858 94.415,134.143 95.685,136.268C100.927,133.958 103.555,127.955 101.563,122.498C99.793,117.642 94.945,114.808 90.026,115.372Z" style="fill:rgb(243,117,106);fill-rule:nonzero;"/>
                <path d="M141.218,96.71C137.09,99.445 135.204,104.732 136.974,109.59C138.964,115.046 144.837,117.952 150.334,116.345C149.94,113.901 149.314,111.443 148.426,109.007C146.716,104.316 144.229,100.176 141.218,96.71Z" style="fill:rgb(217,65,71);fill-rule:nonzero;"/>
                <path d="M127.285,138.032C121.598,140.105 118.67,146.396 120.742,152.082C120.882,152.464 121.042,152.829 121.217,153.187C124.916,153.475 128.656,153.021 132.269,151.703C135.882,150.386 139.038,148.327 141.681,145.726C141.586,145.34 141.474,144.955 141.336,144.575C139.263,138.888 132.972,135.958 127.285,138.032Z" style="fill:rgb(243,117,106);fill-rule:nonzero;"/>
                <path d="M108.615,86.713L111.282,94.043C115.24,92.588 117.848,89.086 118.361,85.173C115.092,85.072 111.804,85.557 108.615,86.713Z" style="fill:rgb(217,65,71);fill-rule:nonzero;"/>
                <path d="M115.54,105.739L123.035,126.334C128.713,124.257 131.637,117.971 129.563,112.29C127.495,106.611 121.22,103.684 115.54,105.739Z" style="fill:rgb(217,65,71);fill-rule:nonzero;"/>
                <path d="M127.292,138.03L132.269,151.703C135.882,150.386 139.038,148.327 141.681,145.726C141.586,145.34 141.474,144.955 141.336,144.575C139.263,138.891 132.977,135.963 127.292,138.03Z" style="fill:rgb(217,65,71);fill-rule:nonzero;"/>
                <path d="M161.83,81.25C145.37,81.25 132.025,96.733 132.025,115.831C132.025,134.928 145.37,150.411 161.83,150.411C178.289,150.411 191.633,134.928 191.633,115.831C191.633,96.733 178.289,81.25 161.83,81.25Z" style="fill:rgb(243,117,106);fill-rule:nonzero;"/>
                <path d="M157.33,161.839L161.139,150.411L149.712,154.22L157.33,161.839Z" style="fill:rgb(244,181,96);fill-rule:nonzero;"/>
                <path d="M142.976,89.051L180.682,89.051C175.546,84.176 168.983,81.25 161.83,81.25C154.677,81.25 148.112,84.176 142.976,89.051Z" style="fill:rgb(244,181,96);fill-rule:nonzero;"/>
                <path d="M161.83,81.25L161.83,150.411C178.289,150.411 191.633,134.928 191.633,115.831C191.633,96.733 178.289,81.25 161.83,81.25Z" style="fill:rgb(217,65,71);fill-rule:nonzero;"/>
                <path d="M136.919,96.853C134.332,101.416 132.646,106.729 132.17,112.455L191.49,112.455C191.013,106.729 189.329,101.416 186.74,96.853L136.919,96.853Z" style="fill:rgb(244,181,96);fill-rule:nonzero;"/>
                <path d="M137.542,135.859L186.117,135.859C188.889,131.343 190.747,126.023 191.382,120.256L132.277,120.256C132.912,126.023 134.77,131.343 137.542,135.859Z" style="fill:rgb(244,181,96);fill-rule:nonzero;"/>
                <path d="M161.83,150.411C168.453,150.411 174.569,147.901 179.516,143.661L144.143,143.661C149.091,147.901 155.207,150.411 161.83,150.411Z" style="fill:rgb(244,181,96);fill-rule:nonzero;"/>
                <path d="M161.83,89.051L180.682,89.051C175.546,84.176 168.983,81.25 161.83,81.25L161.83,89.051Z" style="fill:rgb(233,137,63);fill-rule:nonzero;"/>
                <path d="M161.83,96.853L161.83,112.455L191.49,112.455C191.013,106.729 189.329,101.416 186.74,96.853L161.83,96.853Z" style="fill:rgb(233,137,63);fill-rule:nonzero;"/>
                <path d="M161.83,135.859L186.117,135.859C188.889,131.343 190.747,126.023 191.382,120.256L161.83,120.256L161.83,135.859Z" style="fill:rgb(233,137,63);fill-rule:nonzero;"/>
                <path d="M161.83,150.411C168.453,150.411 174.569,147.901 179.516,143.661L161.83,143.661L161.83,150.411Z" style="fill:rgb(233,137,63);fill-rule:nonzero;"/>
                <path d="M216.404,92.598C200.937,86.969 183.102,96.955 176.57,114.9C170.038,132.847 177.282,151.959 192.749,157.59C208.217,163.219 226.052,153.234 232.583,135.286C239.115,117.34 231.871,98.229 216.404,92.598Z" style="fill:rgb(243,117,106);fill-rule:nonzero;"/>
                <path d="M184.308,166.677L191.795,157.241L179.754,156.913L184.308,166.677Z" style="fill:rgb(101,198,228);fill-rule:nonzero;"/>
                <path d="M216.404,92.598L192.749,157.59C208.217,163.219 226.052,153.234 232.583,135.286C239.115,117.34 231.871,98.229 216.404,92.598Z" style="fill:rgb(217,65,71);fill-rule:nonzero;"/>
                <path d="M211.092,107.191L202.127,116.803L191.336,112.857L196.376,123.317L190.617,133.397L202.122,131.836L209.932,140.428L212.002,129.005L222.584,124.231L211.782,120.317L211.092,107.191Z" style="fill:rgb(101,198,228);fill-rule:nonzero;"/>
                <path d="M211.092,107.191L202.122,131.836L209.932,140.428L212.002,129.005L222.584,124.231L211.782,120.317L211.092,107.191Z" style="fill:rgb(29,164,196);fill-rule:nonzero;"/>
                <path d="M135.379,222.769C134.413,221.802 134.343,220.299 135.223,219.419C135.62,219.021 136.164,218.801 136.754,218.801C137.418,218.801 138.08,219.084 138.572,219.574C139.237,220.24 140.093,222.804 140.65,224.847C138.607,224.289 136.044,223.434 135.379,222.769ZM139.622,218.524C138.855,217.756 137.809,217.315 136.754,217.315C135.768,217.315 134.851,217.689 134.172,218.368C132.713,219.828 132.783,222.273 134.328,223.818C135.693,225.185 140.918,226.46 141.51,226.601C141.566,226.614 141.625,226.621 141.681,226.621L141.689,226.621C142.098,226.596 142.44,226.291 142.44,225.877C142.44,225.766 142.415,225.659 142.37,225.564C142.121,224.541 140.913,219.813 139.622,218.524Z" style="fill:rgb(78,83,88);fill-rule:nonzero;"/>
                <path d="M148.141,232.336C147.742,232.734 147.197,232.954 146.607,232.954C145.945,232.954 145.282,232.672 144.791,232.181C144.126,231.516 143.271,228.951 142.713,226.91C144.756,227.466 147.318,228.322 147.985,228.988C148.95,229.953 149.02,231.456 148.141,232.336ZM141.854,225.155C141.604,225.095 141.34,225.17 141.156,225.353C140.974,225.535 140.898,225.799 140.959,226.05C141.1,226.641 142.375,231.866 143.74,233.232C144.508,233.999 145.555,234.439 146.607,234.44C147.595,234.44 148.511,234.066 149.191,233.387C150.651,231.927 150.582,229.482 149.035,227.937C147.669,226.57 142.445,225.296 141.854,225.155Z" style="fill:rgb(78,83,88);fill-rule:nonzero;"/>
            </g>
        </g>
    </g>
</svg>
