<?xml version="1.0" encoding="UTF-8" standalone="no"?>
<!DOCTYPE svg PUBLIC "-//W3C//DTD SVG 1.1//EN" "http://www.w3.org/Graphics/SVG/1.1/DTD/svg11.dtd">
<svg width="100%" height="100%" viewBox="0 0 213 213" version="1.1" xmlns="http://www.w3.org/2000/svg" xmlns:xlink="http://www.w3.org/1999/xlink" xml:space="preserve" xmlns:serif="http://www.serif.com/" style="fill-rule:evenodd;clip-rule:evenodd;stroke-linejoin:round;stroke-miterlimit:2;">
    <g transform="matrix(4.16667,0,0,4.16667,-939.854,-1206.49)">
        <clipPath id="_clip1">
            <path d="M286.615,313.367C286.615,350.695 250,374.105 250,374.105C250,374.105 213.385,350.695 213.385,313.367C213.385,293.146 229.777,276.753 250,276.753C270.222,276.753 286.615,293.146 286.615,313.367Z"/>
        </clipPath>
        <g clip-path="url(#_clip1)">
            <clipPath id="_clip2">
                <circle cx="251.027" cy="315.02" r="25.462"/>
            </clipPath>
            <g clip-path="url(#_clip2)">
                <rect x="137.799" y="201.212" width="224.402" height="224.401" style="fill:rgb(46,184,181);fill-rule:nonzero;"/>
                <path d="M313.238,364.027C313.206,363.984 312.793,363.567 312.758,363.537L312.758,357.442C312.758,357.26 312.658,357.101 312.51,357.016C312.36,356.759 310.089,354.624 309.983,354.474L309.983,345.705C309.983,345.425 309.847,345.177 309.638,345.021C309.628,345.009 307.547,342.918 307.52,342.896C307.447,342.39 307.367,342.086 306.847,341.662C306.844,341.659 262.333,297.147 262.325,297.14C262.079,296.836 261.698,296.658 261.292,296.678C260.519,296.625 258.474,297.488 257.67,298.428C257.657,298.418 257.644,298.411 257.63,298.402C257.545,298.257 257.39,298.157 257.209,298.157C256.109,298.157 255.822,298.076 255.652,298.439C254.234,297.057 251.165,295.714 250.729,297.653C250.539,298.501 250.582,299.256 251.051,299.976L249.048,299.976C248.579,299.976 248.199,300.356 248.199,300.825L248.199,304.702L248.199,308.124C248.188,308.113 246.683,306.625 246.66,306.611C246.574,306.464 246.416,306.363 246.232,306.363L235.205,306.363C234.93,306.363 234.708,306.586 234.708,306.859C234.708,307.82 234.642,308.063 234.956,308.246C235,308.324 235.483,308.792 235.558,308.872C231.179,317.211 231.3,316.8 231.3,317.457L231.3,323.813C231.3,324.679 231.764,325.199 232.675,326C232.683,326.008 276.649,369.976 276.661,369.986C277.015,370.389 277.533,370.646 278.112,370.646L281.079,370.646C281.114,370.682 284.074,373.641 284.089,373.653C284.888,374.5 286.021,375.029 287.277,375.029C289.698,375.029 291.661,373.066 291.661,370.646L297.826,370.646C297.857,370.677 300.825,373.644 300.835,373.654C303.546,376.526 308.407,374.606 308.407,370.646C312.998,370.646 312.811,370.683 313.052,370.586C313.361,370.462 313.58,370.16 313.58,369.807L313.58,364.702C313.58,364.426 313.445,364.181 313.238,364.027Z" style="fill:rgb(37,169,171);fill-rule:nonzero;"/>
                <path d="M267.878,318.745C267.878,319.02 267.655,319.241 267.381,319.241L245.787,319.241L245.787,312.066L267.381,312.066C267.655,312.066 267.878,312.289 267.878,312.563L267.878,318.745Z" style="fill:rgb(246,178,64);fill-rule:nonzero;"/>
                <path d="M256.833,312.065L256.833,319.241L267.381,319.241C267.655,319.241 267.878,319.018 267.878,318.744L267.878,312.563C267.878,312.288 267.655,312.065 267.381,312.065L256.833,312.065Z" style="fill:rgb(248,151,64);fill-rule:nonzero;"/>
                <rect x="245.699" y="314.702" width="22.179" height="1.508" style="fill:rgb(114,44,90);fill-rule:nonzero;"/>
                <rect x="256.789" y="314.702" width="11.089" height="1.508" style="fill:rgb(94,37,82);fill-rule:nonzero;"/>
                <rect x="255.898" y="312.065" width="1.508" height="7.176" style="fill:rgb(114,44,90);fill-rule:nonzero;"/>
                <rect x="256.651" y="312.065" width="0.755" height="7.176" style="fill:rgb(94,37,82);fill-rule:nonzero;"/>
                <path d="M246.884,318.984C246.278,318.984 245.788,318.494 245.788,317.889L245.788,307.785L236.129,307.785L231.522,316.559C231.376,316.836 231.3,317.144 231.3,317.457L231.3,323.833C231.3,324.9 232.165,325.766 233.232,325.766L267.862,325.766C268.325,325.766 268.7,325.39 268.7,324.927L268.7,319.823C268.7,319.36 268.325,318.984 267.862,318.984L246.884,318.984Z" style="fill:rgb(228,86,105);fill-rule:nonzero;"/>
                <path d="M235.898,323.55C235.898,323.695 235.78,323.813 235.634,323.813L231.3,323.813L231.3,321.553L235.637,321.553C235.781,321.553 235.898,321.67 235.898,321.813L235.898,323.55Z" style="fill:white;fill-rule:nonzero;"/>
                <path d="M244.486,315.188C244.486,315.79 243.999,316.277 243.396,316.277L235.638,316.277C235.25,316.277 234.892,316.071 234.697,315.737C234.501,315.402 234.498,314.989 234.688,314.652L237.289,310.051C237.482,309.708 237.844,309.497 238.237,309.497L243.396,309.497C243.999,309.497 244.486,309.984 244.486,310.587L244.486,315.188Z" style="fill:rgb(246,178,64);fill-rule:nonzero;"/>
                <path d="M235.306,313.56L241.8,309.497L240.122,309.497L236.225,311.936L235.306,313.56Z" style="fill:white;fill-rule:nonzero;"/>
                <path d="M243.396,309.497L243.082,309.497L234.638,314.779C234.511,315.091 234.524,315.442 234.697,315.737C234.704,315.752 234.717,315.762 234.725,315.775L244.195,309.851C243.996,309.635 243.713,309.497 243.396,309.497Z" style="fill:white;fill-rule:nonzero;"/>
                <path d="M246.729,307.819C246.729,308.094 246.506,308.316 246.232,308.316L235.203,308.316C234.929,308.316 234.706,308.094 234.706,307.819L234.706,306.86C234.706,306.586 234.929,306.363 235.203,306.363L246.232,306.363C246.506,306.363 246.729,306.586 246.729,306.86L246.729,307.819Z" style="fill:white;fill-rule:nonzero;"/>
                <path d="M246.78,325.765C246.78,328.187 244.817,330.148 242.396,330.148C239.975,330.148 238.012,328.187 238.012,325.765C238.012,323.344 239.975,321.381 242.396,321.381C244.817,321.381 246.78,323.344 246.78,325.765Z" style="fill:rgb(114,44,90);fill-rule:nonzero;"/>
                <path d="M242.396,321.381L242.396,330.148C244.817,330.148 246.78,328.187 246.78,325.765C246.78,323.344 244.817,321.381 242.396,321.381Z" style="fill:rgb(94,37,82);fill-rule:nonzero;"/>
                <path d="M243.834,325.765C243.834,326.56 243.19,327.203 242.396,327.203C241.602,327.203 240.958,326.56 240.958,325.765C240.958,324.971 241.602,324.327 242.396,324.327C243.19,324.327 243.834,324.971 243.834,325.765Z" style="fill:rgb(246,178,64);fill-rule:nonzero;"/>
                <path d="M242.396,324.327L242.396,327.203C243.19,327.203 243.834,326.56 243.834,325.765C243.834,324.971 243.19,324.327 242.396,324.327Z" style="fill:rgb(248,151,64);fill-rule:nonzero;"/>
                <path d="M263.528,325.765C263.528,328.187 261.565,330.148 259.142,330.148C256.721,330.148 254.758,328.187 254.758,325.765C254.758,323.344 256.721,321.381 259.142,321.381C261.565,321.381 263.528,323.344 263.528,325.765Z" style="fill:rgb(114,44,90);fill-rule:nonzero;"/>
                <path d="M259.142,321.381L259.142,330.148C261.565,330.148 263.528,328.187 263.528,325.765C263.528,323.344 261.565,321.381 259.142,321.381Z" style="fill:rgb(94,37,82);fill-rule:nonzero;"/>
                <path d="M260.582,325.765C260.582,326.56 259.937,327.203 259.142,327.203C258.347,327.203 257.704,326.56 257.704,325.765C257.704,324.971 258.347,324.327 259.142,324.327C259.937,324.327 260.582,324.971 260.582,325.765Z" style="fill:rgb(246,178,64);fill-rule:nonzero;"/>
                <path d="M259.142,324.327L259.142,327.203C259.937,327.203 260.582,326.56 260.582,325.765C260.582,324.971 259.937,324.327 259.142,324.327Z" style="fill:rgb(248,151,64);fill-rule:nonzero;"/>
                <path d="M267.261,325.765L267.862,325.765C268.324,325.765 268.7,325.39 268.7,324.927L268.7,322.374L267.261,322.374L267.261,325.765Z" style="fill:white;fill-rule:nonzero;"/>
                <path d="M265.104,311.216C265.104,311.685 264.724,312.065 264.254,312.065L249.048,312.065C248.579,312.065 248.199,311.685 248.199,311.216L248.199,300.825C248.199,300.355 248.579,299.976 249.048,299.976L264.254,299.976C264.724,299.976 265.104,300.355 265.104,300.825L265.104,311.216Z" style="fill:rgb(114,44,90);fill-rule:nonzero;"/>
                <path d="M256.651,299.976L256.651,312.065L264.254,312.065C264.723,312.065 265.104,311.685 265.104,311.216L265.104,300.825C265.104,300.355 264.723,299.976 264.254,299.976L256.651,299.976Z" style="fill:rgb(94,37,82);fill-rule:nonzero;"/>
                <rect x="248.199" y="304.702" width="16.905" height="2.638" style="fill:rgb(228,86,105);fill-rule:nonzero;"/>
                <rect x="256.651" y="304.702" width="8.453" height="2.638" style="fill:rgb(228,86,105);fill-rule:nonzero;"/>
                <rect x="255.333" y="299.924" width="2.636" height="12.193" style="fill:rgb(228,86,105);fill-rule:nonzero;"/>
                <rect x="256.651" y="299.924" width="1.318" height="12.193" style="fill:rgb(228,86,105);fill-rule:nonzero;"/>
                <path d="M262.226,300.015L257.42,299.993L257.461,298.691C258.699,297.464 259.707,296.973 261.113,296.698C261.778,296.567 262.425,296.99 262.574,297.652C262.767,298.517 262.72,299.283 262.226,300.015Z" style="fill:rgb(246,178,64);fill-rule:nonzero;"/>
                <path d="M261.457,296.738C261.548,296.911 260.674,297.548 259.505,298.161C258.338,298.773 257.577,298.99 257.484,298.816C257.394,298.644 257.965,297.968 259.134,297.355C260.301,296.742 261.367,296.565 261.457,296.738Z" style="fill:rgb(248,151,64);fill-rule:nonzero;"/>
                <path d="M251.077,300.017L255.882,299.994L255.841,298.692C254.605,297.464 253.596,296.973 252.191,296.699C251.525,296.569 250.877,296.992 250.729,297.653C250.536,298.517 250.583,299.283 251.077,300.017Z" style="fill:rgb(246,178,64);fill-rule:nonzero;"/>
                <path d="M251.845,296.738C251.753,296.911 252.628,297.548 253.797,298.161C254.964,298.773 255.726,298.99 255.818,298.816C255.908,298.644 255.336,297.968 254.168,297.355C253,296.742 251.937,296.565 251.845,296.738Z" style="fill:rgb(248,151,64);fill-rule:nonzero;"/>
                <path d="M257.698,299.562C257.698,299.831 257.479,300.05 257.209,300.05L256.092,300.049C255.963,300.049 255.839,299.998 255.748,299.906C255.657,299.814 255.604,299.69 255.604,299.561L255.605,298.645C255.605,298.376 255.823,298.157 256.092,298.157L257.209,298.157C257.338,298.157 257.463,298.208 257.555,298.3C257.646,298.392 257.699,298.516 257.699,298.646L257.698,299.562Z" style="fill:white;fill-rule:nonzero;"/>
            </g>
        </g>
    </g>
</svg>
