<?xml version="1.0" encoding="UTF-8" standalone="no"?>
<!DOCTYPE svg PUBLIC "-//W3C//DTD SVG 1.1//EN" "http://www.w3.org/Graphics/SVG/1.1/DTD/svg11.dtd">
<svg width="100%" height="100%" viewBox="0 0 500 500" version="1.1" xmlns="http://www.w3.org/2000/svg" xmlns:xlink="http://www.w3.org/1999/xlink" xml:space="preserve" xmlns:serif="http://www.serif.com/" style="fill-rule:evenodd;clip-rule:evenodd;stroke-linejoin:round;stroke-miterlimit:2;">
    <g transform="matrix(4.15255,0,0,4.15255,-1526.03,-795.821)">
        <clipPath id="_clip1">
            <circle cx="427.697" cy="251.852" r="60.206"/>
        </clipPath>
        <g clip-path="url(#_clip1)">
            <rect x="350" y="175" width="150" height="150" style="fill:rgb(78,83,88);"/>
            <clipPath id="_clip2">
                <rect x="350" y="175" width="150" height="150"/>
            </clipPath>
            <g clip-path="url(#_clip2)">
                <path d="M542.765,315.798C542.591,314.386 542.725,313.73 542.273,313.959C542.251,313.623 452.638,224.459 452.621,224.158C452.604,223.857 452.156,223.858 452.141,224.158C451.79,230.554 449.519,233.297 444.558,233.321C442.816,231.58 431.192,219.957 429.517,218.281C429.517,218.281 424.782,223.015 424.77,223.028L414.346,212.529L400.44,219.013L412.416,235.381L412.342,235.455L395.973,223.48L389.488,237.385L399.988,247.809L395.241,252.557C403.396,260.711 402.238,259.554 408.886,266.201L410.835,287.529C411,287.529 500.798,377.128 500.835,377.529L537.98,377.529C540.845,346.191 545.069,343.489 526.698,323.425L528.549,321.574C528.613,321.686 542.215,335.322 542.381,335.322C542.381,335.322 542.452,324.485 550.292,323.803C550.978,323.744 542.965,315.817 542.765,315.798Z" style="fill:rgb(31,43,47);fill-rule:nonzero;"/>
                <path d="M434.702,250.233C432.54,250.233 431.553,249.052 431.399,246.278C431.397,246.223 431.352,246.181 431.297,246.181C431.241,246.181 431.196,246.223 431.192,246.278C431.04,249.052 430.053,250.233 427.891,250.233C427.835,250.233 427.789,250.278 427.787,250.333C427.784,250.389 427.826,250.437 427.882,250.441C430.287,250.651 431.169,253.103 431.192,255.139C431.191,255.196 431.191,255.254 431.192,255.311C431.193,255.368 431.239,255.415 431.297,255.415C431.354,255.415 431.399,255.368 431.4,255.311C431.401,255.254 431.401,255.196 431.4,255.139C431.424,253.103 432.306,250.651 434.711,250.441C434.767,250.437 434.809,250.389 434.806,250.333C434.804,250.278 434.758,250.233 434.702,250.233Z" style="fill:rgb(101,198,228);fill-rule:nonzero;"/>
                <path d="M400.44,218.983L412.619,235.63L419.27,232.529L414.346,212.5L400.44,218.983Z" style="fill:rgb(244,181,96);fill-rule:nonzero;"/>
                <path d="M389.488,237.356L409.518,242.28L412.619,235.63L395.973,223.452L389.488,237.356Z" style="fill:rgb(244,181,96);fill-rule:nonzero;"/>
                <path d="M410.835,287.5L447.98,287.5L451.091,253.465L407.725,253.465L410.835,287.5Z" style="fill:rgb(244,181,96);fill-rule:nonzero;"/>
                <path d="M395.241,252.527L406.404,263.689L440.68,229.415L429.517,218.252L395.241,252.527Z" style="fill:rgb(101,198,228);fill-rule:nonzero;"/>
                <path d="M429.407,287.5L447.98,287.5L451.091,253.465L429.407,253.465L429.407,287.5Z" style="fill:rgb(233,137,63);fill-rule:nonzero;"/>
                <path d="M408.134,239.635L419.297,250.797L427.787,242.308L416.624,231.145L408.134,239.635Z" style="fill:rgb(243,117,106);fill-rule:nonzero;"/>
                <rect x="424.467" y="253.465" width="9.881" height="34.035" style="fill:rgb(243,117,106);fill-rule:nonzero;"/>
                <path d="M446.814,244.492C443.739,244.492 442.333,242.81 442.116,238.864C442.113,238.786 442.048,238.725 441.97,238.725C441.891,238.725 441.826,238.786 441.821,238.864C441.604,242.81 440.2,244.492 437.124,244.492C437.044,244.492 436.979,244.555 436.977,244.634C436.973,244.713 437.032,244.781 437.11,244.788C440.533,245.085 441.788,248.572 441.82,251.471L441.82,251.717C441.822,251.797 441.888,251.863 441.97,251.863C442.05,251.863 442.116,251.797 442.117,251.717C442.118,251.635 442.118,251.553 442.117,251.471C442.151,248.572 443.404,245.085 446.828,244.788C446.906,244.781 446.965,244.713 446.963,244.634C446.959,244.555 446.894,244.492 446.814,244.492Z" style="fill:rgb(217,65,71);fill-rule:nonzero;"/>
                <path d="M460.271,233.294C455.262,233.294 452.975,230.554 452.621,224.13C452.614,224.002 452.508,223.902 452.381,223.902C452.254,223.902 452.147,224.002 452.141,224.13C451.788,230.554 449.499,233.294 444.491,233.294C444.362,233.294 444.256,233.396 444.25,233.524C444.244,233.653 444.342,233.763 444.47,233.773C450.044,234.259 452.085,239.938 452.14,244.655C452.138,244.789 452.138,244.924 452.14,245.056C452.142,245.188 452.248,245.294 452.381,245.294C452.513,245.294 452.62,245.188 452.622,245.056C452.623,244.924 452.623,244.789 452.622,244.655C452.676,239.938 454.717,234.259 460.292,233.773C460.419,233.763 460.517,233.653 460.511,233.524C460.506,233.396 460.399,233.294 460.271,233.294Z" style="fill:rgb(244,181,96);fill-rule:nonzero;"/>
                <path d="M446.768,258.41C445.17,258.41 444.439,257.537 444.327,255.486C444.325,255.446 444.291,255.415 444.25,255.415C444.209,255.415 444.176,255.446 444.174,255.486C444.062,257.537 443.331,258.41 441.733,258.41C441.692,258.41 441.659,258.443 441.656,258.484C441.654,258.525 441.686,258.561 441.727,258.564C443.505,258.719 444.156,260.53 444.174,262.036C444.173,262.078 444.173,262.121 444.174,262.163C444.174,262.205 444.208,262.239 444.25,262.239C444.292,262.239 444.326,262.205 444.327,262.163L444.327,262.036C444.345,260.53 444.996,258.719 446.774,258.564C446.816,258.561 446.846,258.525 446.845,258.484C446.842,258.443 446.809,258.41 446.768,258.41Z" style="fill:white;fill-rule:nonzero;"/>
                <path d="M429.407,218.36L429.407,240.687L440.68,229.415L429.517,218.252L429.407,218.36Z" style="fill:rgb(29,164,196);fill-rule:nonzero;"/>
                <rect x="429.407" y="253.465" width="4.941" height="34.035" style="fill:rgb(217,65,71);fill-rule:nonzero;"/>
            </g>
        </g>
    </g>
</svg>
