<?xml version="1.0" encoding="UTF-8" standalone="no"?>
<!DOCTYPE svg PUBLIC "-//W3C//DTD SVG 1.1//EN" "http://www.w3.org/Graphics/SVG/1.1/DTD/svg11.dtd">
<svg width="100%" height="100%" viewBox="0 0 1467 1467" version="1.1" xmlns="http://www.w3.org/2000/svg" xmlns:xlink="http://www.w3.org/1999/xlink" xml:space="preserve" xmlns:serif="http://www.serif.com/" style="fill-rule:evenodd;clip-rule:evenodd;stroke-linejoin:round;stroke-miterlimit:2;">
    <g transform="matrix(4.16667,0,0,4.16667,-296.167,-301.942)">
        <g>
            <path d="M423.412,248.726C423.412,345.913 344.627,424.699 247.439,424.699C150.251,424.699 71.464,345.913 71.464,248.726C71.464,151.539 150.251,72.753 247.439,72.753C344.627,72.753 423.412,151.539 423.412,248.726Z" style="fill:rgb(88,136,108);fill-rule:nonzero;"/>
            <path d="M219.05,410.146L218.98,410.134C215.866,409.585 212.749,408.943 209.718,408.231C209.208,408.11 208.895,407.599 209.017,407.095C209.135,406.585 209.65,406.245 210.153,406.392C213.15,407.099 216.23,407.728 219.309,408.271C219.825,408.362 220.202,408.858 220.112,409.374C220.02,409.889 219.565,410.237 219.05,410.146Z" style="fill:rgb(255,254,254);fill-rule:nonzero;"/>
            <path d="M284.631,91.07C284.611,91.066 284.596,91.063 284.576,91.058C281.611,90.363 278.582,89.739 275.566,89.207L275.35,89.17C274.834,89.08 274.49,88.588 274.582,88.075C274.672,87.559 275.162,87.215 275.678,87.306L275.896,87.345C278.945,87.882 282.01,88.512 285.008,89.215C285.52,89.336 285.832,89.844 285.713,90.353C285.602,90.845 285.121,91.156 284.631,91.07Z" style="fill:rgb(255,254,254);fill-rule:nonzero;"/>
            <path d="M191.449,402.777L191.383,402.753C188.412,401.671 185.452,400.498 182.593,399.27C182.111,399.063 181.891,398.505 182.1,398.028C182.305,397.546 182.87,397.304 183.341,397.532C186.17,398.751 189.093,399.903 192.03,400.974C192.522,401.152 192.808,401.708 192.629,402.2C192.45,402.692 191.94,402.956 191.449,402.777Z" style="fill:rgb(255,254,254);fill-rule:nonzero;"/>
            <path d="M311.441,99.935C311.422,99.929 311.408,99.924 311.389,99.915C308.59,98.715 305.715,97.576 302.84,96.528L302.631,96.453C302.141,96.274 301.887,95.731 302.066,95.241C302.244,94.748 302.787,94.497 303.279,94.675L303.486,94.75C306.396,95.809 309.305,96.961 312.137,98.175C312.617,98.382 312.838,98.937 312.631,99.417C312.436,99.883 311.91,100.104 311.441,99.935Z" style="fill:rgb(255,254,254);fill-rule:nonzero;"/>
            <path d="M165.548,390.728L165.486,390.692C162.749,389.11 160.039,387.442 157.435,385.735C156.997,385.447 156.876,384.86 157.165,384.428C157.45,383.988 158.049,383.847 158.474,384.154C161.049,385.845 163.726,387.489 166.433,389.052C166.886,389.313 167.072,389.91 166.811,390.363C166.549,390.816 166.001,390.989 165.548,390.728Z" style="fill:rgb(255,254,254);fill-rule:nonzero;"/>
            <path d="M336.305,113.321C336.287,113.312 336.275,113.304 336.258,113.293C333.709,111.626 331.076,110.004 328.426,108.474L328.234,108.362C327.781,108.101 327.627,107.523 327.887,107.07C328.148,106.617 328.727,106.462 329.18,106.724L329.371,106.835C332.053,108.383 334.717,110.022 337.293,111.709C337.732,111.996 337.854,112.583 337.566,113.02C337.293,113.443 336.738,113.571 336.305,113.321Z" style="fill:rgb(255,254,254);fill-rule:nonzero;"/>
            <path d="M142.133,374.363L142.078,374.317C139.657,372.284 137.278,370.169 135.01,368.037C134.628,367.678 134.612,367.078 134.971,366.703C135.328,366.32 135.944,366.282 136.306,366.66C138.549,368.772 140.9,370.856 143.295,372.868C143.697,373.203 143.775,373.822 143.439,374.223C143.103,374.625 142.534,374.698 142.133,374.363Z" style="fill:rgb(255,254,254);fill-rule:nonzero;"/>
            <path d="M358.467,130.823C358.451,130.811 358.439,130.801 358.426,130.788C356.205,128.701 353.895,126.646 351.549,124.681L351.379,124.537C350.979,124.2 350.926,123.606 351.262,123.206C351.598,122.805 352.193,122.753 352.596,123.088L352.766,123.231C355.137,125.221 357.475,127.299 359.721,129.408C360.104,129.766 360.121,130.365 359.762,130.745C359.418,131.115 358.85,131.145 358.467,130.823Z" style="fill:rgb(255,254,254);fill-rule:nonzero;"/>
            <path d="M121.915,354.181L121.87,354.127C119.837,351.705 117.861,349.209 115.999,346.716C115.685,346.296 115.772,345.701 116.19,345.395C116.609,345.079 117.222,345.15 117.515,345.586C119.356,348.053 121.31,350.515 123.319,352.911C123.655,353.312 123.627,353.935 123.225,354.271C122.824,354.607 122.251,354.582 121.915,354.181Z" style="fill:rgb(255,254,254);fill-rule:nonzero;"/>
            <path d="M377.252,151.908C377.238,151.893 377.229,151.88 377.217,151.865C375.393,149.426 373.473,147.002 371.506,144.655L371.363,144.487C371.025,144.087 371.08,143.49 371.479,143.154C371.881,142.818 372.477,142.871 372.813,143.271L372.955,143.439C374.945,145.813 376.889,148.264 378.732,150.732C379.047,151.15 378.959,151.743 378.541,152.057C378.139,152.359 377.572,152.291 377.252,151.908Z" style="fill:rgb(255,254,254);fill-rule:nonzero;"/>
            <path d="M105.51,330.794L105.475,330.733C103.894,327.995 102.381,325.194 100.979,322.415C100.743,321.947 100.934,321.378 101.399,321.146C101.865,320.908 102.456,321.086 102.668,321.564C104.052,324.315 105.55,327.08 107.113,329.787C107.375,330.24 107.238,330.848 106.783,331.11C106.33,331.372 105.771,331.248 105.51,330.794Z" style="fill:rgb(255,254,254);fill-rule:nonzero;"/>
            <path d="M392.092,175.933C392.082,175.915 392.074,175.902 392.064,175.885C390.691,173.166 389.223,170.445 387.691,167.795L387.582,167.602C387.32,167.148 387.473,166.571 387.926,166.311C388.379,166.049 388.959,166.203 389.221,166.656L389.33,166.848C390.879,169.53 392.363,172.281 393.754,175.032C393.99,175.5 393.801,176.067 393.336,176.303C392.887,176.532 392.342,176.364 392.092,175.933Z" style="fill:rgb(255,254,254);fill-rule:nonzero;"/>
            <path d="M93.413,304.914L93.388,304.849C92.306,301.877 91.304,298.855 90.406,295.875C90.254,295.373 90.542,294.846 91.04,294.7C91.541,294.546 92.092,294.823 92.218,295.332C93.104,298.28 94.098,301.263 95.168,304.2C95.347,304.692 95.105,305.268 94.613,305.447C94.121,305.626 93.591,305.407 93.413,304.914Z" style="fill:rgb(255,254,254);fill-rule:nonzero;"/>
            <path d="M402.533,202.171C402.527,202.151 402.52,202.138 402.516,202.118C401.635,199.203 400.66,196.268 399.613,193.392L399.537,193.183C399.359,192.69 399.611,192.149 400.102,191.971C400.594,191.792 401.135,192.044 401.316,192.536L401.391,192.745C402.449,195.653 403.436,198.621 404.326,201.571C404.479,202.073 404.195,202.6 403.693,202.75C403.211,202.898 402.703,202.639 402.533,202.171Z" style="fill:rgb(255,254,254);fill-rule:nonzero;"/>
            <path d="M85.995,277.327L85.983,277.259C85.434,274.145 84.971,270.996 84.603,267.904C84.543,267.384 84.916,266.914 85.431,266.856C85.953,266.792 86.446,267.159 86.481,267.683C86.842,270.741 87.304,273.851 87.845,276.929C87.937,277.445 87.601,277.97 87.085,278.061C86.569,278.151 86.086,277.843 85.995,277.327Z" style="fill:rgb(255,254,254);fill-rule:nonzero;"/>
            <path d="M408.26,229.823C408.256,229.803 408.254,229.788 408.25,229.768C407.891,226.744 407.439,223.685 406.908,220.67L406.871,220.451C406.781,219.937 407.123,219.446 407.637,219.356C408.152,219.266 408.643,219.607 408.734,220.124L408.771,220.342C409.311,223.392 409.766,226.485 410.131,229.544C410.193,230.064 409.822,230.534 409.303,230.596C408.803,230.657 408.346,230.313 408.26,229.823Z" style="fill:rgb(255,254,254);fill-rule:nonzero;"/>
            <path d="M83.479,248.871L83.479,248.801C83.479,245.639 83.57,242.457 83.746,239.35C83.776,238.826 84.224,238.429 84.743,238.461C85.266,238.489 85.689,238.937 85.634,239.458C85.458,242.533 85.372,245.675 85.372,248.801C85.372,249.324 84.949,249.782 84.426,249.782C83.902,249.782 83.479,249.395 83.479,248.871Z" style="fill:rgb(255,254,254);fill-rule:nonzero;"/>
            <path d="M409.098,258.05C409.098,258.029 409.098,258.014 409.1,257.994C409.27,254.953 409.357,251.862 409.357,248.801L409.357,248.579C409.357,248.056 409.779,247.633 410.303,247.633C410.826,247.633 411.248,248.056 411.248,248.579L411.248,248.801C411.248,251.897 411.16,255.023 410.988,258.1C410.959,258.623 410.512,259.021 409.99,258.991C409.486,258.966 409.098,258.548 409.098,258.05Z" style="fill:rgb(255,254,254);fill-rule:nonzero;"/>
            <path d="M85.942,220.411L85.955,220.342C86.503,217.228 87.146,214.11 87.861,211.08C87.98,210.571 88.49,210.256 88.996,210.378C89.507,210.496 89.845,211.012 89.701,211.515C88.992,214.513 88.362,217.592 87.82,220.67C87.728,221.187 87.234,221.563 86.718,221.474C86.202,221.383 85.852,220.927 85.942,220.411Z" style="fill:rgb(255,254,254);fill-rule:nonzero;"/>
            <path d="M405.021,285.992C405.023,285.974 405.027,285.959 405.031,285.938C405.727,282.973 406.35,279.944 406.883,276.929L406.922,276.711C407.012,276.196 407.502,275.853 408.018,275.943C408.533,276.035 408.875,276.523 408.785,277.04L408.746,277.259C408.207,280.308 407.578,283.371 406.873,286.371C406.756,286.881 406.246,287.194 405.736,287.075C405.244,286.963 404.934,286.483 405.021,285.992Z" style="fill:rgb(255,254,254);fill-rule:nonzero;"/>
            <path d="M93.313,192.812L93.338,192.745C94.418,189.773 95.591,186.815 96.82,183.954C97.029,183.473 97.585,183.253 98.061,183.461C98.544,183.666 98.788,184.231 98.556,184.702C97.34,187.531 96.185,190.454 95.115,193.393C94.937,193.884 94.383,194.171 93.891,193.99C93.398,193.812 93.134,193.302 93.313,192.812Z" style="fill:rgb(255,254,254);fill-rule:nonzero;"/>
            <path d="M396.154,312.803C396.162,312.785 396.168,312.771 396.176,312.753C397.377,309.953 398.516,307.078 399.561,304.201L399.639,303.992C399.818,303.502 400.359,303.249 400.85,303.428C401.342,303.606 401.596,304.148 401.416,304.641L401.34,304.849C400.281,307.758 399.129,310.666 397.914,313.498C397.709,313.979 397.152,314.2 396.672,313.993C396.209,313.797 395.984,313.271 396.154,312.803Z" style="fill:rgb(255,254,254);fill-rule:nonzero;"/>
            <path d="M105.364,166.91L105.399,166.848C106.979,164.11 108.648,161.4 110.355,158.798C110.643,158.358 111.23,158.239 111.663,158.526C112.103,158.812 112.245,159.412 111.937,159.835C110.246,162.41 108.601,165.087 107.038,167.795C106.776,168.249 106.182,168.434 105.728,168.172C105.274,167.91 105.102,167.363 105.364,166.91Z" style="fill:rgb(255,254,254);fill-rule:nonzero;"/>
            <path d="M382.768,337.667C382.777,337.649 382.785,337.637 382.797,337.621C384.465,335.071 386.086,332.439 387.617,329.787L387.727,329.596C387.988,329.143 388.566,328.988 389.02,329.248C389.473,329.51 389.627,330.089 389.365,330.542L389.256,330.733C387.707,333.414 386.066,336.078 384.379,338.656C384.092,339.096 383.508,339.217 383.07,338.93C382.646,338.655 382.52,338.1 382.768,337.667Z" style="fill:rgb(255,254,254);fill-rule:nonzero;"/>
            <path d="M121.729,143.494L121.774,143.439C123.806,141.019 125.92,138.64 128.052,136.371C128.412,135.99 129.011,135.974 129.388,136.331C129.771,136.689 129.807,137.305 129.429,137.668C127.318,139.91 125.232,142.262 123.224,144.657C122.887,145.059 122.269,145.137 121.867,144.801C121.467,144.464 121.392,143.896 121.729,143.494Z" style="fill:rgb(255,254,254);fill-rule:nonzero;"/>
            <path d="M365.266,359.828C365.279,359.813 365.289,359.801 365.303,359.787C367.387,357.566 369.441,355.256 371.41,352.911L371.551,352.741C371.889,352.34 372.484,352.288 372.885,352.624C373.285,352.96 373.338,353.556 373.002,353.957L372.859,354.127C370.869,356.498 368.793,358.837 366.684,361.082C366.322,361.465 365.727,361.482 365.346,361.123C364.977,360.78 364.945,360.211 365.266,359.828Z" style="fill:rgb(255,254,254);fill-rule:nonzero;"/>
            <path d="M141.91,123.276L141.963,123.231C144.386,121.199 146.881,119.224 149.376,117.36C149.796,117.047 150.388,117.134 150.697,117.554C151.012,117.973 150.94,118.584 150.506,118.876C148.037,120.719 145.575,122.672 143.181,124.681C142.779,125.019 142.156,124.988 141.819,124.588C141.484,124.187 141.51,123.613 141.91,123.276Z" style="fill:rgb(255,254,254);fill-rule:nonzero;"/>
            <path d="M344.182,378.615C344.197,378.603 344.209,378.593 344.227,378.58C346.664,376.757 349.09,374.837 351.434,372.868L351.604,372.726C352.004,372.39 352.6,372.442 352.936,372.842C353.273,373.243 353.221,373.838 352.818,374.176L352.648,374.317C350.277,376.308 347.826,378.25 345.359,380.095C344.939,380.41 344.348,380.323 344.035,379.903C343.73,379.501 343.801,378.935 344.182,378.615Z" style="fill:rgb(255,254,254);fill-rule:nonzero;"/>
            <path d="M165.295,106.871L165.357,106.836C168.095,105.255 170.896,103.742 173.675,102.341C174.144,102.105 174.712,102.295 174.944,102.761C175.181,103.228 175.004,103.817 174.526,104.03C171.775,105.415 169.011,106.911 166.304,108.475C165.851,108.736 165.242,108.601 164.98,108.146C164.719,107.693 164.842,107.133 165.295,106.871Z" style="fill:rgb(255,254,254);fill-rule:nonzero;"/>
            <path d="M320.156,393.454C320.174,393.444 320.186,393.437 320.205,393.427C322.924,392.055 325.645,390.585 328.295,389.054L328.488,388.943C328.941,388.682 329.518,388.837 329.779,389.288C330.041,389.743 329.887,390.32 329.434,390.583L329.24,390.692C326.561,392.241 323.809,393.728 321.059,395.116C320.59,395.353 320.023,395.165 319.787,394.698C319.557,394.25 319.725,393.704 320.156,393.454Z" style="fill:rgb(255,254,254);fill-rule:nonzero;"/>
            <path d="M191.176,94.776L191.242,94.75C194.214,93.669 197.234,92.666 200.215,91.769C200.716,91.618 201.245,91.904 201.391,92.402C201.544,92.903 201.268,93.455 200.759,93.581C197.809,94.466 194.828,95.46 191.891,96.531C191.397,96.709 190.823,96.467 190.643,95.977C190.464,95.484 190.684,94.955 191.176,94.776Z" style="fill:rgb(255,254,254);fill-rule:nonzero;"/>
            <path d="M293.92,403.896C293.938,403.889 293.953,403.884 293.971,403.878C296.887,402.997 299.822,402.023 302.699,400.976L302.908,400.901C303.398,400.721 303.941,400.974 304.119,401.464C304.299,401.958 304.045,402.499 303.555,402.678L303.346,402.753C300.436,403.813 297.467,404.799 294.52,405.688C294.016,405.843 293.49,405.558 293.34,405.057C293.191,404.575 293.449,404.065 293.92,403.896Z" style="fill:rgb(255,254,254);fill-rule:nonzero;"/>
            <path d="M218.763,87.356L218.833,87.344C221.947,86.795 225.096,86.332 228.186,85.965C228.707,85.905 229.177,86.277 229.234,86.793C229.299,87.314 228.93,87.808 228.407,87.843C225.349,88.204 222.24,88.665 219.161,89.207C218.646,89.298 218.121,88.962 218.03,88.447C217.939,87.931 218.248,87.447 218.763,87.356Z" style="fill:rgb(255,254,254);fill-rule:nonzero;"/>
            <path d="M266.268,409.62C266.287,409.618 266.301,409.616 266.32,409.612C269.346,409.253 272.406,408.802 275.42,408.271L275.639,408.232C276.154,408.142 276.643,408.485 276.734,408.999C276.826,409.515 276.482,410.006 275.967,410.097L275.748,410.134C272.699,410.673 269.605,411.128 266.545,411.492C266.025,411.556 265.557,411.184 265.496,410.664C265.434,410.164 265.775,409.708 266.268,409.62Z" style="fill:rgb(255,254,254);fill-rule:nonzero;"/>
            <path d="M247.51,412.611L247.439,412.611C244.277,412.611 241.096,412.521 237.988,412.345C237.465,412.313 237.066,411.866 237.1,411.348C237.127,410.823 237.575,410.401 238.097,410.456C241.172,410.632 244.313,410.718 247.439,410.718C247.963,410.718 248.421,411.142 248.421,411.665C248.421,412.188 248.033,412.611 247.51,412.611Z" style="fill:rgb(255,254,254);fill-rule:nonzero;"/>
            <path d="M256.687,86.993C256.668,86.993 256.652,86.993 256.633,86.992C253.592,86.822 250.5,86.733 247.439,86.733L247.218,86.733C246.694,86.733 246.271,86.31 246.271,85.788C246.271,85.264 246.694,84.841 247.218,84.841L247.439,84.841C250.535,84.841 253.662,84.929 256.738,85.102C257.262,85.131 257.66,85.578 257.629,86.1C257.604,86.604 257.187,86.993 256.687,86.993Z" style="fill:rgb(255,254,254);fill-rule:nonzero;"/>
        </g>
        <g transform="matrix(1,0,0,1,-2.88,-1.68)">
            <clipPath id="_clip1">
                <path d="M98.438,250.186C98.438,166.48 166.295,98.624 250.001,98.624C333.706,98.624 401.562,166.48 401.562,250.186C401.562,333.892 333.706,401.748 250.001,401.748C166.295,401.748 98.438,333.892 98.438,250.186Z"/>
            </clipPath>
            <g clip-path="url(#_clip1)">
                <rect x="-135" y="-134.814" width="770" height="770" style="fill:rgb(246,197,102);fill-rule:nonzero;"/>
                <path d="M548.487,427.272L318.41,197.195C316.993,195.529 314.914,194.449 312.582,194.345C312.277,194.016 301.704,183.457 301.577,183.344C298.622,180.115 295.938,177.742 291.271,177.716C291.041,177.475 278.929,165.371 278.68,165.154C276.536,162.685 274.209,161.103 270.927,161.103L259.262,161.103C259.066,160.839 254.17,155.912 253.783,155.633C252.786,154.251 251.51,153.936 250,153.936C246.935,153.936 245.439,155.93 245.439,158.01L245.439,161.103L229.074,161.103C224.082,161.103 220.036,165.15 220.036,170.141L220.036,177.712L208.795,177.712C202.409,177.712 197.232,182.891 197.232,189.276L197.232,194.326L187.789,194.326C183.291,194.326 179.646,197.971 179.646,202.468L179.646,211.916L170.199,211.916L170.199,223.316L179.646,232.52C179.646,232.52 180.717,237.427 182.512,238.957C182.792,239.284 206.892,263.391 207.25,263.705L196.094,263.705C189.349,263.705 183.879,269.172 183.879,275.919L183.879,287.481L191.785,294.846L191.785,306.373L196.385,310.354C196.385,310.354 181.599,317.61 181.599,325.946C182.609,325.946 412.599,556.946 412.599,556.946L548.487,427.272Z" style="fill:rgb(235,170,80);fill-rule:nonzero;"/>
                <path d="M302.767,245.953C302.767,252.34 297.589,257.516 291.204,257.516L208.795,257.516C202.409,257.516 197.232,252.34 197.232,245.953L197.232,189.276C197.232,182.889 202.409,177.712 208.795,177.712L291.204,177.712C297.589,177.712 302.767,182.889 302.767,189.276L302.767,245.953Z" style="fill:rgb(224,114,118);fill-rule:nonzero;"/>
                <path d="M250,177.712L250,257.516L291.204,257.516C297.59,257.516 302.767,252.338 302.767,245.953L302.767,189.278C302.767,182.891 297.59,177.712 291.204,177.712L250,177.712Z" style="fill:rgb(219,93,98);fill-rule:nonzero;"/>
                <path d="M197.234,240.903L187.787,240.903C183.291,240.903 179.646,237.256 179.646,232.759L179.646,202.47C179.646,197.973 183.291,194.326 187.787,194.326L197.234,194.326L197.234,240.903Z" style="fill:rgb(41,93,110);fill-rule:nonzero;"/>
                <rect x="170.199" y="211.916" width="9.447" height="11.4" style="fill:rgb(224,114,118);fill-rule:nonzero;"/>
                <path d="M302.767,240.903L312.212,240.903C316.709,240.903 320.356,237.256 320.356,232.759L320.356,202.47C320.356,197.973 316.709,194.326 312.212,194.326L302.767,194.326L302.767,240.903Z" style="fill:rgb(31,73,91);fill-rule:nonzero;"/>
                <rect x="320.356" y="211.916" width="9.444" height="11.4" style="fill:rgb(219,93,98);fill-rule:nonzero;"/>
                <path d="M279.965,177.712L220.036,177.712L220.036,170.141C220.036,165.15 224.083,161.103 229.074,161.103L270.927,161.103C275.918,161.103 279.965,165.15 279.965,170.141L279.965,177.712Z" style="fill:rgb(187,210,193);fill-rule:nonzero;"/>
                <path d="M250,161.103L250,177.712L279.965,177.712L279.965,170.141C279.965,165.146 275.918,161.103 270.929,161.103L250,161.103Z" style="fill:rgb(149,190,166);fill-rule:nonzero;"/>
                <path d="M254.559,161.103L245.439,161.103L245.439,158.01C245.439,155.761 247.262,153.938 249.51,153.938L250.487,153.938C252.735,153.938 254.559,155.761 254.559,158.01L254.559,161.103Z" style="fill:rgb(224,114,118);fill-rule:nonzero;"/>
                <path d="M250,153.936L250,161.103L254.559,161.103L254.559,158.008C254.559,155.759 252.739,153.936 250.489,153.936L250,153.936Z" style="fill:rgb(219,93,98);fill-rule:nonzero;"/>
                <rect x="208.96" y="257.516" width="82.081" height="48.857" style="fill:rgb(41,93,110);fill-rule:nonzero;"/>
                <rect x="250" y="257.516" width="41.041" height="48.857" style="fill:rgb(31,73,91);fill-rule:nonzero;"/>
                <path d="M208.96,287.481L183.88,287.481L183.88,275.919C183.88,269.172 189.349,263.705 196.094,263.705L208.96,263.705L208.96,287.481Z" style="fill:rgb(187,210,193);fill-rule:nonzero;"/>
                <rect x="191.785" y="287.481" width="10.898" height="18.892" style="fill:rgb(224,114,118);fill-rule:nonzero;"/>
                <path d="M212.867,325.946L205.05,325.946C205.05,321.635 201.543,318.127 197.234,318.127C192.922,318.127 189.414,321.635 189.414,325.946L181.599,325.946C181.599,317.323 188.613,310.309 197.234,310.309C205.853,310.309 212.867,317.323 212.867,325.946Z" style="fill:rgb(187,210,193);fill-rule:nonzero;"/>
                <path d="M291.041,287.481L316.121,287.481L316.121,275.919C316.121,269.172 310.653,263.705 303.907,263.705L291.041,263.705L291.041,287.481Z" style="fill:rgb(149,190,166);fill-rule:nonzero;"/>
                <rect x="297.316" y="287.481" width="10.899" height="18.892" style="fill:rgb(219,93,98);fill-rule:nonzero;"/>
                <path d="M287.132,325.946L294.949,325.946C294.949,321.635 298.455,318.127 302.767,318.127C307.077,318.127 310.584,321.635 310.584,325.946L318.401,325.946C318.401,317.323 311.386,310.309 302.767,310.309C294.145,310.309 287.132,317.323 287.132,325.946Z" style="fill:rgb(149,190,166);fill-rule:nonzero;"/>
                <path d="M240.229,275.594C240.229,281.71 235.27,286.667 229.154,286.667C223.038,286.667 218.081,281.71 218.081,275.594C218.081,269.477 223.038,264.52 229.154,264.52C235.27,264.52 240.229,269.477 240.229,275.594Z" style="fill:rgb(224,114,118);fill-rule:nonzero;"/>
                <path d="M229.154,278.85C227.358,278.85 225.897,277.39 225.897,275.594C225.897,273.795 227.358,272.336 229.154,272.336C230.951,272.336 232.411,273.795 232.411,275.594C232.411,277.39 230.951,278.85 229.154,278.85Z" style="fill:rgb(187,210,193);fill-rule:nonzero;"/>
                <path d="M259.769,275.594C259.769,281.71 264.729,286.667 270.845,286.667C276.961,286.667 281.92,281.71 281.92,275.594C281.92,269.477 276.961,264.52 270.845,264.52C264.729,264.52 259.769,269.477 259.769,275.594Z" style="fill:rgb(219,93,98);fill-rule:nonzero;"/>
                <path d="M270.845,278.85C272.643,278.85 274.104,277.39 274.104,275.594C274.104,273.795 272.643,272.336 270.845,272.336C269.048,272.336 267.588,273.795 267.588,275.594C267.588,277.39 269.048,278.85 270.845,278.85Z" style="fill:rgb(149,190,166);fill-rule:nonzero;"/>
                <rect x="220.032" y="292.693" width="59.933" height="13.68" style="fill:rgb(224,114,118);fill-rule:nonzero;"/>
                <rect x="250" y="292.693" width="29.965" height="13.68" style="fill:rgb(219,93,98);fill-rule:nonzero;"/>
                <path d="M243.161,317.292C243.161,318.638 242.069,319.728 240.723,319.728L218.56,319.728C217.215,319.728 216.124,318.638 216.124,317.292L216.124,306.373L243.161,306.373L243.161,317.292Z" style="fill:rgb(187,210,193);fill-rule:nonzero;"/>
                <path d="M243.161,346.436L216.125,346.436L216.125,335.519C216.125,334.174 217.217,333.083 218.562,333.083L240.725,333.083C242.069,333.083 243.161,334.174 243.161,335.519L243.161,346.436Z" style="fill:rgb(41,93,110);fill-rule:nonzero;"/>
                <rect x="221.662" y="319.728" width="15.962" height="13.355" style="fill:rgb(224,114,118);fill-rule:nonzero;"/>
                <path d="M256.84,317.292C256.84,318.638 257.93,319.728 259.277,319.728L281.438,319.728C282.784,319.728 283.875,318.638 283.875,317.292L283.875,306.373L256.84,306.373L256.84,317.292Z" style="fill:rgb(149,190,166);fill-rule:nonzero;"/>
                <path d="M256.84,346.436L283.874,346.436L283.874,335.519C283.874,334.174 282.782,333.083 281.438,333.083L259.277,333.083C257.93,333.083 256.84,334.174 256.84,335.519L256.84,346.436Z" style="fill:rgb(31,73,91);fill-rule:nonzero;"/>
                <rect x="262.377" y="319.728" width="15.962" height="13.355" style="fill:rgb(219,93,98);fill-rule:nonzero;"/>
                <path d="M243.161,217.616C243.161,228.409 234.41,237.16 223.617,237.16C212.823,237.16 204.076,228.409 204.076,217.616C204.076,206.822 212.823,198.071 223.617,198.071C234.41,198.071 243.161,206.822 243.161,217.616Z" style="fill:rgb(187,210,193);fill-rule:nonzero;"/>
                <path d="M223.617,198.071L223.617,237.16C234.41,237.156 243.161,228.409 243.161,217.616C243.161,206.822 234.41,198.071 223.617,198.071Z" style="fill:rgb(149,190,166);fill-rule:nonzero;"/>
                <path d="M223.617,229.341C217.152,229.341 211.89,224.081 211.89,217.616C211.89,211.149 217.152,205.888 223.617,205.888C230.083,205.888 235.342,211.149 235.342,217.616C235.342,224.081 230.083,229.341 223.617,229.341Z" style="fill:rgb(41,93,110);fill-rule:nonzero;"/>
                <path d="M223.617,205.888L223.617,229.341C230.083,229.341 235.342,224.081 235.342,217.616C235.342,211.149 230.083,205.888 223.617,205.888Z" style="fill:rgb(31,73,91);fill-rule:nonzero;"/>
                <path d="M217.438,219.835C216.214,219.835 215.217,218.842 215.217,217.616C215.217,212.982 218.987,209.217 223.617,209.217C224.841,209.217 225.834,210.212 225.834,211.434C225.834,212.663 224.841,213.654 223.617,213.654C221.432,213.654 219.657,215.431 219.657,217.616C219.657,218.842 218.664,219.835 217.438,219.835Z" style="fill:rgb(254,233,212);fill-rule:nonzero;"/>
                <path d="M256.84,217.616C256.84,228.409 265.589,237.16 276.382,237.16C287.175,237.16 295.925,228.409 295.925,217.616C295.925,206.822 287.175,198.071 276.382,198.071C265.589,198.071 256.84,206.822 256.84,217.616Z" style="fill:rgb(187,210,193);fill-rule:nonzero;"/>
                <path d="M276.382,198.071L276.382,237.16C287.175,237.16 295.925,228.409 295.925,217.616C295.925,206.822 287.175,198.071 276.382,198.071Z" style="fill:rgb(149,190,166);fill-rule:nonzero;"/>
                <path d="M276.382,229.341C282.849,229.341 288.109,224.081 288.109,217.616C288.109,211.149 282.849,205.888 276.382,205.888C269.918,205.888 264.659,211.149 264.659,217.616C264.659,224.081 269.918,229.341 276.382,229.341Z" style="fill:rgb(41,93,110);fill-rule:nonzero;"/>
                <path d="M276.382,205.888L276.382,229.341C282.849,229.341 288.109,224.081 288.109,217.616C288.109,211.149 282.849,205.888 276.382,205.888Z" style="fill:rgb(31,73,91);fill-rule:nonzero;"/>
                <path d="M270.205,219.835C268.979,219.835 267.986,218.842 267.986,217.616C267.986,212.982 271.753,209.217 276.382,209.217C277.606,209.217 278.601,210.212 278.601,211.434C278.601,212.663 277.606,213.654 276.382,213.654C274.201,213.654 272.425,215.431 272.425,217.616C272.425,218.842 271.43,219.835 270.205,219.835Z" style="fill:rgb(254,233,212);fill-rule:nonzero;"/>
                <path d="M252.93,227.876C252.93,229.495 251.618,230.804 250,230.804C248.381,230.804 247.067,229.495 247.067,227.876C247.067,226.257 248.381,224.943 250,224.943C251.618,224.943 252.93,226.257 252.93,227.876Z" style="fill:rgb(246,197,102);fill-rule:nonzero;"/>
                <path d="M250,224.943L250,230.804C251.618,230.804 252.93,229.495 252.93,227.876C252.93,226.257 251.618,224.943 250,224.943Z" style="fill:rgb(247,168,78);fill-rule:nonzero;"/>
                <path d="M264.659,241.045C264.659,242.767 263.262,244.163 261.542,244.163L238.456,244.163C236.735,244.163 235.338,242.767 235.338,241.045C235.338,239.168 236.861,237.646 238.738,237.646L261.259,237.646C263.136,237.646 264.659,239.168 264.659,241.045Z" style="fill:rgb(187,210,193);fill-rule:nonzero;"/>
                <path d="M250,237.646L250,244.161L261.542,244.161C263.261,244.161 264.659,242.765 264.659,241.044C264.659,239.168 263.136,237.646 261.256,237.646L250,237.646Z" style="fill:rgb(149,190,166);fill-rule:nonzero;"/>
                <path d="M216.124,246.722C216.124,250.68 212.917,253.888 208.96,253.888C205.002,253.888 201.794,250.68 201.794,246.722C201.794,242.765 205.002,239.557 208.96,239.557C212.917,239.557 216.124,242.765 216.124,246.722Z" style="fill:rgb(246,197,102);fill-rule:nonzero;"/>
                <path d="M283.874,246.722C283.874,250.68 287.083,253.888 291.041,253.888C294.999,253.888 298.206,250.68 298.206,246.722C298.206,242.765 294.999,239.557 291.041,239.557C287.083,239.557 283.874,242.765 283.874,246.722Z" style="fill:rgb(247,168,78);fill-rule:nonzero;"/>
            </g>
        </g>
    </g>
</svg>
