<?xml version="1.0" encoding="UTF-8" standalone="no"?>
<!DOCTYPE svg PUBLIC "-//W3C//DTD SVG 1.1//EN" "http://www.w3.org/Graphics/SVG/1.1/DTD/svg11.dtd">
<svg width="100%" height="100%" viewBox="0 0 1467 1467" version="1.1" xmlns="http://www.w3.org/2000/svg" xmlns:xlink="http://www.w3.org/1999/xlink" xml:space="preserve" xmlns:serif="http://www.serif.com/" style="fill-rule:evenodd;clip-rule:evenodd;stroke-linejoin:round;stroke-miterlimit:2;">
    <g transform="matrix(4.16667,0,0,4.16667,-297.496,-302.869)">
        <path d="M423.412,248.726C423.412,345.913 344.627,424.699 247.439,424.699C150.251,424.699 71.464,345.913 71.464,248.726C71.464,151.539 150.251,72.753 247.439,72.753C344.627,72.753 423.412,151.539 423.412,248.726Z" style="fill:rgb(243,122,109);fill-rule:nonzero;"/>
    </g>
    <g transform="matrix(4.16667,0,0,4.16667,-297.496,-302.869)">
        <path d="M219.05,410.146L218.98,410.134C215.866,409.585 212.749,408.943 209.718,408.231C209.208,408.11 208.895,407.599 209.017,407.095C209.135,406.585 209.65,406.245 210.153,406.392C213.15,407.099 216.23,407.728 219.309,408.271C219.825,408.362 220.202,408.858 220.112,409.374C220.02,409.889 219.565,410.237 219.05,410.146Z" style="fill:rgb(255,254,254);fill-rule:nonzero;"/>
    </g>
    <g transform="matrix(4.16667,0,0,4.16667,-297.496,-302.869)">
        <path d="M284.631,91.07C284.611,91.066 284.596,91.063 284.576,91.058C281.611,90.363 278.582,89.739 275.566,89.207L275.35,89.17C274.834,89.08 274.49,88.588 274.582,88.075C274.672,87.559 275.162,87.215 275.678,87.306L275.896,87.345C278.945,87.882 282.01,88.512 285.008,89.215C285.52,89.336 285.832,89.844 285.713,90.353C285.602,90.845 285.121,91.156 284.631,91.07Z" style="fill:rgb(255,254,254);fill-rule:nonzero;"/>
    </g>
    <g transform="matrix(4.16667,0,0,4.16667,-297.496,-302.869)">
        <path d="M191.449,402.777L191.383,402.753C188.412,401.671 185.452,400.498 182.593,399.27C182.111,399.063 181.891,398.505 182.1,398.028C182.305,397.546 182.87,397.304 183.341,397.532C186.17,398.751 189.093,399.903 192.03,400.974C192.522,401.152 192.808,401.708 192.629,402.2C192.45,402.692 191.94,402.956 191.449,402.777Z" style="fill:rgb(255,254,254);fill-rule:nonzero;"/>
    </g>
    <g transform="matrix(4.16667,0,0,4.16667,-297.496,-302.869)">
        <path d="M311.441,99.935C311.422,99.929 311.408,99.924 311.389,99.915C308.59,98.715 305.715,97.576 302.84,96.528L302.631,96.453C302.141,96.274 301.887,95.731 302.066,95.241C302.244,94.748 302.787,94.497 303.279,94.675L303.486,94.75C306.396,95.809 309.305,96.961 312.137,98.175C312.617,98.382 312.838,98.937 312.631,99.417C312.436,99.883 311.91,100.104 311.441,99.935Z" style="fill:rgb(255,254,254);fill-rule:nonzero;"/>
    </g>
    <g transform="matrix(4.16667,0,0,4.16667,-297.496,-302.869)">
        <path d="M165.548,390.728L165.486,390.692C162.749,389.11 160.039,387.442 157.435,385.735C156.997,385.447 156.876,384.86 157.165,384.428C157.45,383.988 158.049,383.847 158.474,384.154C161.049,385.845 163.726,387.489 166.433,389.052C166.886,389.313 167.072,389.91 166.811,390.363C166.549,390.816 166.001,390.989 165.548,390.728Z" style="fill:rgb(255,254,254);fill-rule:nonzero;"/>
    </g>
    <g transform="matrix(4.16667,0,0,4.16667,-297.496,-302.869)">
        <path d="M336.305,113.321C336.287,113.312 336.275,113.304 336.258,113.293C333.709,111.626 331.076,110.004 328.426,108.474L328.234,108.362C327.781,108.101 327.627,107.523 327.887,107.07C328.148,106.617 328.727,106.462 329.18,106.724L329.371,106.835C332.053,108.383 334.717,110.022 337.293,111.709C337.732,111.996 337.854,112.583 337.566,113.02C337.293,113.443 336.738,113.571 336.305,113.321Z" style="fill:rgb(255,254,254);fill-rule:nonzero;"/>
    </g>
    <g transform="matrix(4.16667,0,0,4.16667,-297.496,-302.869)">
        <path d="M142.133,374.363L142.078,374.317C139.657,372.284 137.278,370.169 135.01,368.037C134.628,367.678 134.612,367.078 134.971,366.703C135.328,366.32 135.944,366.282 136.306,366.66C138.549,368.772 140.9,370.856 143.295,372.868C143.697,373.203 143.775,373.822 143.439,374.223C143.103,374.625 142.534,374.698 142.133,374.363Z" style="fill:rgb(255,254,254);fill-rule:nonzero;"/>
    </g>
    <g transform="matrix(4.16667,0,0,4.16667,-297.496,-302.869)">
        <path d="M358.467,130.823C358.451,130.811 358.439,130.801 358.426,130.788C356.205,128.701 353.895,126.646 351.549,124.681L351.379,124.537C350.979,124.2 350.926,123.606 351.262,123.206C351.598,122.805 352.193,122.753 352.596,123.088L352.766,123.231C355.137,125.221 357.475,127.299 359.721,129.408C360.104,129.766 360.121,130.365 359.762,130.745C359.418,131.115 358.85,131.145 358.467,130.823Z" style="fill:rgb(255,254,254);fill-rule:nonzero;"/>
    </g>
    <g transform="matrix(4.16667,0,0,4.16667,-297.496,-302.869)">
        <path d="M121.915,354.181L121.87,354.127C119.837,351.705 117.861,349.209 115.999,346.716C115.685,346.296 115.772,345.701 116.19,345.395C116.609,345.079 117.222,345.15 117.515,345.586C119.356,348.053 121.31,350.515 123.319,352.911C123.655,353.312 123.627,353.935 123.225,354.271C122.824,354.607 122.251,354.582 121.915,354.181Z" style="fill:rgb(255,254,254);fill-rule:nonzero;"/>
    </g>
    <g transform="matrix(4.16667,0,0,4.16667,-297.496,-302.869)">
        <path d="M377.252,151.908C377.238,151.893 377.229,151.88 377.217,151.865C375.393,149.426 373.473,147.002 371.506,144.655L371.363,144.487C371.025,144.087 371.08,143.49 371.479,143.154C371.881,142.818 372.477,142.871 372.813,143.271L372.955,143.439C374.945,145.813 376.889,148.264 378.732,150.732C379.047,151.15 378.959,151.743 378.541,152.057C378.139,152.359 377.572,152.291 377.252,151.908Z" style="fill:rgb(255,254,254);fill-rule:nonzero;"/>
    </g>
    <g transform="matrix(4.16667,0,0,4.16667,-297.496,-302.869)">
        <path d="M105.51,330.794L105.475,330.733C103.894,327.995 102.381,325.194 100.979,322.415C100.743,321.947 100.934,321.378 101.399,321.146C101.865,320.908 102.456,321.086 102.668,321.564C104.052,324.315 105.55,327.08 107.113,329.787C107.375,330.24 107.238,330.848 106.783,331.11C106.33,331.372 105.771,331.248 105.51,330.794Z" style="fill:rgb(255,254,254);fill-rule:nonzero;"/>
    </g>
    <g transform="matrix(4.16667,0,0,4.16667,-297.496,-302.869)">
        <path d="M392.092,175.933C392.082,175.915 392.074,175.902 392.064,175.885C390.691,173.166 389.223,170.445 387.691,167.795L387.582,167.602C387.32,167.148 387.473,166.571 387.926,166.311C388.379,166.049 388.959,166.203 389.221,166.656L389.33,166.848C390.879,169.53 392.363,172.281 393.754,175.032C393.99,175.5 393.801,176.067 393.336,176.303C392.887,176.532 392.342,176.364 392.092,175.933Z" style="fill:rgb(255,254,254);fill-rule:nonzero;"/>
    </g>
    <g transform="matrix(4.16667,0,0,4.16667,-297.496,-302.869)">
        <path d="M93.413,304.914L93.388,304.849C92.306,301.877 91.304,298.855 90.406,295.875C90.254,295.373 90.542,294.846 91.04,294.7C91.541,294.546 92.092,294.823 92.218,295.332C93.104,298.28 94.098,301.263 95.168,304.2C95.347,304.692 95.105,305.268 94.613,305.447C94.121,305.626 93.591,305.407 93.413,304.914Z" style="fill:rgb(255,254,254);fill-rule:nonzero;"/>
    </g>
    <g transform="matrix(4.16667,0,0,4.16667,-297.496,-302.869)">
        <path d="M402.533,202.171C402.527,202.151 402.52,202.138 402.516,202.118C401.635,199.203 400.66,196.268 399.613,193.392L399.537,193.183C399.359,192.69 399.611,192.149 400.102,191.971C400.594,191.792 401.135,192.044 401.316,192.536L401.391,192.745C402.449,195.653 403.436,198.621 404.326,201.571C404.479,202.073 404.195,202.6 403.693,202.75C403.211,202.898 402.703,202.639 402.533,202.171Z" style="fill:rgb(255,254,254);fill-rule:nonzero;"/>
    </g>
    <g transform="matrix(4.16667,0,0,4.16667,-297.496,-302.869)">
        <path d="M85.995,277.327L85.983,277.259C85.434,274.145 84.971,270.996 84.603,267.904C84.543,267.384 84.916,266.914 85.431,266.856C85.953,266.792 86.446,267.159 86.481,267.683C86.842,270.741 87.304,273.851 87.845,276.929C87.937,277.445 87.601,277.97 87.085,278.061C86.569,278.151 86.086,277.843 85.995,277.327Z" style="fill:rgb(255,254,254);fill-rule:nonzero;"/>
    </g>
    <g transform="matrix(4.16667,0,0,4.16667,-297.496,-302.869)">
        <path d="M408.26,229.823C408.256,229.803 408.254,229.788 408.25,229.768C407.891,226.744 407.439,223.685 406.908,220.67L406.871,220.451C406.781,219.937 407.123,219.446 407.637,219.356C408.152,219.266 408.643,219.607 408.734,220.124L408.771,220.342C409.311,223.392 409.766,226.485 410.131,229.544C410.193,230.064 409.822,230.534 409.303,230.596C408.803,230.657 408.346,230.313 408.26,229.823Z" style="fill:rgb(255,254,254);fill-rule:nonzero;"/>
    </g>
    <g transform="matrix(4.16667,0,0,4.16667,-297.496,-302.869)">
        <path d="M83.479,248.871L83.479,248.801C83.479,245.639 83.57,242.457 83.746,239.35C83.776,238.826 84.224,238.429 84.743,238.461C85.266,238.489 85.689,238.937 85.634,239.458C85.458,242.533 85.372,245.675 85.372,248.801C85.372,249.324 84.949,249.782 84.426,249.782C83.902,249.782 83.479,249.395 83.479,248.871Z" style="fill:rgb(255,254,254);fill-rule:nonzero;"/>
    </g>
    <g transform="matrix(4.16667,0,0,4.16667,-297.496,-302.869)">
        <path d="M409.098,258.05C409.098,258.029 409.098,258.014 409.1,257.994C409.27,254.953 409.357,251.862 409.357,248.801L409.357,248.579C409.357,248.056 409.779,247.633 410.303,247.633C410.826,247.633 411.248,248.056 411.248,248.579L411.248,248.801C411.248,251.897 411.16,255.023 410.988,258.1C410.959,258.623 410.512,259.021 409.99,258.991C409.486,258.966 409.098,258.548 409.098,258.05Z" style="fill:rgb(255,254,254);fill-rule:nonzero;"/>
    </g>
    <g transform="matrix(4.16667,0,0,4.16667,-297.496,-302.869)">
        <path d="M85.942,220.411L85.955,220.342C86.503,217.228 87.146,214.11 87.861,211.08C87.98,210.571 88.49,210.256 88.996,210.378C89.507,210.496 89.845,211.012 89.701,211.515C88.992,214.513 88.362,217.592 87.82,220.67C87.728,221.187 87.234,221.563 86.718,221.474C86.202,221.383 85.852,220.927 85.942,220.411Z" style="fill:rgb(255,254,254);fill-rule:nonzero;"/>
    </g>
    <g transform="matrix(4.16667,0,0,4.16667,-297.496,-302.869)">
        <path d="M405.021,285.992C405.023,285.974 405.027,285.959 405.031,285.938C405.727,282.973 406.35,279.944 406.883,276.929L406.922,276.711C407.012,276.196 407.502,275.853 408.018,275.943C408.533,276.035 408.875,276.523 408.785,277.04L408.746,277.259C408.207,280.308 407.578,283.371 406.873,286.371C406.756,286.881 406.246,287.194 405.736,287.075C405.244,286.963 404.934,286.483 405.021,285.992Z" style="fill:rgb(255,254,254);fill-rule:nonzero;"/>
    </g>
    <g transform="matrix(4.16667,0,0,4.16667,-297.496,-302.869)">
        <path d="M93.313,192.812L93.338,192.745C94.418,189.773 95.591,186.815 96.82,183.954C97.029,183.473 97.585,183.253 98.061,183.461C98.544,183.666 98.788,184.231 98.556,184.702C97.34,187.531 96.185,190.454 95.115,193.393C94.937,193.884 94.383,194.171 93.891,193.99C93.398,193.812 93.134,193.302 93.313,192.812Z" style="fill:rgb(255,254,254);fill-rule:nonzero;"/>
    </g>
    <g transform="matrix(4.16667,0,0,4.16667,-297.496,-302.869)">
        <path d="M396.154,312.803C396.162,312.785 396.168,312.771 396.176,312.753C397.377,309.953 398.516,307.078 399.561,304.201L399.639,303.992C399.818,303.502 400.359,303.249 400.85,303.428C401.342,303.606 401.596,304.148 401.416,304.641L401.34,304.849C400.281,307.758 399.129,310.666 397.914,313.498C397.709,313.979 397.152,314.2 396.672,313.993C396.209,313.797 395.984,313.271 396.154,312.803Z" style="fill:rgb(255,254,254);fill-rule:nonzero;"/>
    </g>
    <g transform="matrix(4.16667,0,0,4.16667,-297.496,-302.869)">
        <path d="M105.364,166.91L105.399,166.848C106.979,164.11 108.648,161.4 110.355,158.798C110.643,158.358 111.23,158.239 111.663,158.526C112.103,158.812 112.245,159.412 111.937,159.835C110.246,162.41 108.601,165.087 107.038,167.795C106.776,168.249 106.182,168.434 105.728,168.172C105.274,167.91 105.102,167.363 105.364,166.91Z" style="fill:rgb(255,254,254);fill-rule:nonzero;"/>
    </g>
    <g transform="matrix(4.16667,0,0,4.16667,-297.496,-302.869)">
        <path d="M382.768,337.667C382.777,337.649 382.785,337.637 382.797,337.621C384.465,335.071 386.086,332.439 387.617,329.787L387.727,329.596C387.988,329.143 388.566,328.988 389.02,329.248C389.473,329.51 389.627,330.089 389.365,330.542L389.256,330.733C387.707,333.414 386.066,336.078 384.379,338.656C384.092,339.096 383.508,339.217 383.07,338.93C382.646,338.655 382.52,338.1 382.768,337.667Z" style="fill:rgb(255,254,254);fill-rule:nonzero;"/>
    </g>
    <g transform="matrix(4.16667,0,0,4.16667,-297.496,-302.869)">
        <path d="M121.729,143.494L121.774,143.439C123.806,141.019 125.92,138.64 128.052,136.371C128.412,135.99 129.011,135.974 129.388,136.331C129.771,136.689 129.807,137.305 129.429,137.668C127.318,139.91 125.232,142.262 123.224,144.657C122.887,145.059 122.269,145.137 121.867,144.801C121.467,144.464 121.392,143.896 121.729,143.494Z" style="fill:rgb(255,254,254);fill-rule:nonzero;"/>
    </g>
    <g transform="matrix(4.16667,0,0,4.16667,-297.496,-302.869)">
        <path d="M365.266,359.828C365.279,359.813 365.289,359.801 365.303,359.787C367.387,357.566 369.441,355.256 371.41,352.911L371.551,352.741C371.889,352.34 372.484,352.288 372.885,352.624C373.285,352.96 373.338,353.556 373.002,353.957L372.859,354.127C370.869,356.498 368.793,358.837 366.684,361.082C366.322,361.465 365.727,361.482 365.346,361.123C364.977,360.78 364.945,360.211 365.266,359.828Z" style="fill:rgb(255,254,254);fill-rule:nonzero;"/>
    </g>
    <g transform="matrix(4.16667,0,0,4.16667,-297.496,-302.869)">
        <path d="M141.91,123.276L141.963,123.231C144.386,121.199 146.881,119.224 149.376,117.36C149.796,117.047 150.388,117.134 150.697,117.554C151.012,117.973 150.94,118.584 150.506,118.876C148.037,120.719 145.575,122.672 143.181,124.681C142.779,125.019 142.156,124.988 141.819,124.588C141.484,124.187 141.51,123.613 141.91,123.276Z" style="fill:rgb(255,254,254);fill-rule:nonzero;"/>
    </g>
    <g transform="matrix(4.16667,0,0,4.16667,-297.496,-302.869)">
        <path d="M344.182,378.615C344.197,378.603 344.209,378.593 344.227,378.58C346.664,376.757 349.09,374.837 351.434,372.868L351.604,372.726C352.004,372.39 352.6,372.442 352.936,372.842C353.273,373.243 353.221,373.838 352.818,374.176L352.648,374.317C350.277,376.308 347.826,378.25 345.359,380.095C344.939,380.41 344.348,380.323 344.035,379.903C343.73,379.501 343.801,378.935 344.182,378.615Z" style="fill:rgb(255,254,254);fill-rule:nonzero;"/>
    </g>
    <g transform="matrix(4.16667,0,0,4.16667,-297.496,-302.869)">
        <path d="M165.295,106.871L165.357,106.836C168.095,105.255 170.896,103.742 173.675,102.341C174.144,102.105 174.712,102.295 174.944,102.761C175.181,103.228 175.004,103.817 174.526,104.03C171.775,105.415 169.011,106.911 166.304,108.475C165.851,108.736 165.242,108.601 164.98,108.146C164.719,107.693 164.842,107.133 165.295,106.871Z" style="fill:rgb(255,254,254);fill-rule:nonzero;"/>
    </g>
    <g transform="matrix(4.16667,0,0,4.16667,-297.496,-302.869)">
        <path d="M320.156,393.454C320.174,393.444 320.186,393.437 320.205,393.427C322.924,392.055 325.645,390.585 328.295,389.054L328.488,388.943C328.941,388.682 329.518,388.837 329.779,389.288C330.041,389.743 329.887,390.32 329.434,390.583L329.24,390.692C326.561,392.241 323.809,393.728 321.059,395.116C320.59,395.353 320.023,395.165 319.787,394.698C319.557,394.25 319.725,393.704 320.156,393.454Z" style="fill:rgb(255,254,254);fill-rule:nonzero;"/>
    </g>
    <g transform="matrix(4.16667,0,0,4.16667,-297.496,-302.869)">
        <path d="M191.176,94.776L191.242,94.75C194.214,93.669 197.234,92.666 200.215,91.769C200.716,91.618 201.245,91.904 201.391,92.402C201.544,92.903 201.268,93.455 200.759,93.581C197.809,94.466 194.828,95.46 191.891,96.531C191.397,96.709 190.823,96.467 190.643,95.977C190.464,95.484 190.684,94.955 191.176,94.776Z" style="fill:rgb(255,254,254);fill-rule:nonzero;"/>
    </g>
    <g transform="matrix(4.16667,0,0,4.16667,-297.496,-302.869)">
        <path d="M293.92,403.896C293.938,403.889 293.953,403.884 293.971,403.878C296.887,402.997 299.822,402.023 302.699,400.976L302.908,400.901C303.398,400.721 303.941,400.974 304.119,401.464C304.299,401.958 304.045,402.499 303.555,402.678L303.346,402.753C300.436,403.813 297.467,404.799 294.52,405.688C294.016,405.843 293.49,405.558 293.34,405.057C293.191,404.575 293.449,404.065 293.92,403.896Z" style="fill:rgb(255,254,254);fill-rule:nonzero;"/>
    </g>
    <g transform="matrix(4.16667,0,0,4.16667,-297.496,-302.869)">
        <path d="M218.763,87.356L218.833,87.344C221.947,86.795 225.096,86.332 228.186,85.965C228.707,85.905 229.177,86.277 229.234,86.793C229.299,87.314 228.93,87.808 228.407,87.843C225.349,88.204 222.24,88.665 219.161,89.207C218.646,89.298 218.121,88.962 218.03,88.447C217.939,87.931 218.248,87.447 218.763,87.356Z" style="fill:rgb(255,254,254);fill-rule:nonzero;"/>
    </g>
    <g transform="matrix(4.16667,0,0,4.16667,-297.496,-302.869)">
        <path d="M266.268,409.62C266.287,409.618 266.301,409.616 266.32,409.612C269.346,409.253 272.406,408.802 275.42,408.271L275.639,408.232C276.154,408.142 276.643,408.485 276.734,408.999C276.826,409.515 276.482,410.006 275.967,410.097L275.748,410.134C272.699,410.673 269.605,411.128 266.545,411.492C266.025,411.556 265.557,411.184 265.496,410.664C265.434,410.164 265.775,409.708 266.268,409.62Z" style="fill:rgb(255,254,254);fill-rule:nonzero;"/>
    </g>
    <g transform="matrix(4.16667,0,0,4.16667,-297.496,-302.869)">
        <path d="M247.51,412.611L247.439,412.611C244.277,412.611 241.096,412.521 237.988,412.345C237.465,412.313 237.066,411.866 237.1,411.348C237.127,410.823 237.575,410.401 238.097,410.456C241.172,410.632 244.313,410.718 247.439,410.718C247.963,410.718 248.421,411.142 248.421,411.665C248.421,412.188 248.033,412.611 247.51,412.611Z" style="fill:rgb(255,254,254);fill-rule:nonzero;"/>
    </g>
    <g transform="matrix(4.16667,0,0,4.16667,-297.496,-302.869)">
        <path d="M256.687,86.993C256.668,86.993 256.652,86.993 256.633,86.992C253.592,86.822 250.5,86.733 247.439,86.733L247.218,86.733C246.694,86.733 246.271,86.31 246.271,85.788C246.271,85.264 246.694,84.841 247.218,84.841L247.439,84.841C250.535,84.841 253.662,84.929 256.738,85.102C257.262,85.131 257.66,85.578 257.629,86.1C257.604,86.604 257.187,86.993 256.687,86.993Z" style="fill:rgb(255,254,254);fill-rule:nonzero;"/>
    </g>
    <g transform="matrix(4.16667,0,0,4.16667,-297.496,-302.869)">
        <clipPath id="_clip1">
            <path d="M397.867,248.726C397.867,331.806 330.514,399.159 247.439,399.159C164.357,399.159 97.007,331.806 97.007,248.726C97.007,165.647 164.357,98.297 247.439,98.297C330.514,98.297 397.867,165.647 397.867,248.726Z"/>
        </clipPath>
        <g clip-path="url(#_clip1)">
            <rect x="-566.692" y="-565.403" width="1628.26" height="1628.26" style="fill:rgb(77,83,89);fill-rule:nonzero;"/>
            <path d="M522.185,396.017L522.084,394.995C522.412,395.443 541.193,414.172 541.465,414.36C543.529,417.371 548.279,415.919 548.279,412.253C548.279,410.972 547.633,409.846 546.654,409.173C546.102,408.368 303.982,166.315 303.387,165.909C301.682,163.417 297.877,163.866 296.816,166.716C296.189,165.901 278.67,149.237 277.398,147.304C277.313,147.172 277.191,147.064 277.039,147.01C276.771,146.908 276.469,146.972 276.264,147.165C270.715,152.396 270.543,152.947 269.123,152.642C262.229,151.16 261.805,150.797 261.334,151.396C261.156,151.62 261.121,151.923 261.243,152.183C264.512,159.09 264.969,159.409 264.244,160.66L260.625,166.898C260.482,167.146 260.492,167.452 260.65,167.69C260.812,167.932 280.615,187.509 281.012,187.457C281.012,187.462 281.006,187.467 281.004,187.469C279.131,188.704 277.383,190.17 275.799,191.853C275.791,191.842 275.779,191.835 275.77,191.822C275.262,191.296 242.07,158.108 241.719,157.771C232.994,148.681 220.051,145.635 208.449,149.161C206.87,149.643 200.121,152.703 199.726,153.538C199.592,153.823 199.595,154.156 199.737,154.437C199.896,154.753 200.252,154.984 200.609,155.024C200.656,155.682 210.406,165.229 210.752,165.497C209.718,167.578 210.332,170.054 212.171,171.427C212.5,171.863 227.256,186.602 227.513,186.817C226.511,188.847 227.13,188.343 220.733,189.273C220.527,189.305 220.357,189.447 220.292,189.644C220.229,189.844 220.282,190.06 220.429,190.205C221.684,191.43 224.172,193.954 224.454,194.226C224.855,194.946 224.577,195.564 224.284,197.284C224.267,197.257 224.253,197.23 224.232,197.206C215.062,186.235 194.187,167.525 192.121,165.091C192.038,164.995 191.927,164.917 191.797,164.874C191.543,164.793 191.263,164.862 191.073,165.051C186.03,170.193 185.889,170.716 184.539,170.479C177.983,169.331 177.568,169.005 177.145,169.584C176.985,169.804 176.963,170.093 177.088,170.329C180.418,176.716 180.872,177.008 180.229,178.221L177.043,184.233C176.918,184.472 176.937,184.761 177.097,184.979C177.252,185.198 177.521,185.308 177.786,185.262C177.856,185.252 187.669,195.308 187.669,195.308C185.669,195.84 183.739,196.615 181.923,197.642C180.856,198.249 176.466,201.555 176.317,202.225C176.265,202.452 176.321,202.694 176.47,202.873C176.653,203.097 176.991,203.214 177.272,203.149C177.634,203.068 187.936,214.329 188.192,214.592C187.791,216.408 188.507,218.229 189.962,219.304C190.277,219.732 201.947,231.384 202.241,231.653C201.343,232.513 201.165,233.425 201.165,234.525C201.038,234.399 200.902,234.278 200.767,234.158C195.487,228.129 182.959,227.063 176.918,236.88C174.01,241.603 173.686,247.475 176.073,252.204C177.27,254.578 178.919,256.591 180.807,258.395C181.201,258.804 205.81,283.408 206.107,283.691C206.156,283.742 206.204,283.794 206.251,283.844C205.381,285.755 203.565,287.143 201.404,287.407C201.31,287.343 201.211,287.289 201.107,287.24C200.832,286.662 194.667,280.602 194.297,280.428C193.966,279.734 193.265,279.251 192.449,279.251C191.315,279.251 190.396,280.171 190.396,281.303C190.396,284.378 191.765,287.132 193.912,289.016C194.459,289.639 225.739,320.823 226.23,321.351C225.242,323.722 225.908,326.492 227.991,328.128C228.581,328.878 237.365,337.44 237.828,337.996C236.625,340.816 235.631,341.216 226.737,348.341C225.939,348.983 226.241,350.279 227.29,350.459C227.331,350.707 471.258,594.731 471.73,594.731L504.691,594.731C505.834,594.731 506.34,593.287 505.441,592.577C504.627,591.933 495.111,582.171 494.527,581.71C494.012,579.971 494.123,579.39 494.123,573.601C500.191,573.601 488.613,573.601 501.176,573.601C506.691,573.601 509.023,566.556 504.699,563.194C504.266,562.646 501.973,560.452 501.484,559.921C513.146,554.934 521.354,543.46 521.547,530.021C521.656,530.123 521.77,530.216 521.88,530.314C531.32,541.171 541.814,533.794 541.814,525.543C541.814,524.725 541.33,524.024 540.641,523.693C540.449,523.291 533.455,516.318 533.238,516.149C538.061,512.714 535.691,513.943 542.676,509.242C547.893,505.735 553.285,502.103 556.139,496.442C559.178,490.425 558.381,483.03 550.596,475.825C550.322,475.522 520.313,445.534 520.004,445.216C521.08,443.888 522.245,442.663 523.484,441.55C523.557,442.466 541.672,460.082 542.184,460.454C542.357,460.577 542.584,460.595 542.771,460.496C547.416,458.052 547.986,457.446 549.012,457.985C555.953,461.634 554.953,461.986 553.689,454.591C553.506,453.516 553.977,453.354 558.004,449.432C558.115,449.319 558.201,449.026 558.145,448.854C557.688,447.425 542.539,433.623 542.539,433.623C555.055,432.918 562.537,439.659 563.354,439.948C563.975,440.171 564.693,439.704 564.625,438.991C564.486,437.53 523.418,397.269 522.185,396.017Z" style="fill:rgb(63,67,73);fill-rule:nonzero;"/>
            <path d="M200.653,291.559C194.997,291.559 190.396,286.959 190.396,281.303C190.396,280.171 191.315,279.251 192.449,279.251C193.58,279.251 194.5,280.171 194.5,281.303C194.5,284.697 197.261,287.458 200.653,287.458C204.046,287.458 206.806,284.697 206.806,281.303C206.806,277.571 202.562,274.505 198.818,271.804C197.68,270.979 196.599,270.198 195.691,269.44C193.857,267.917 191.76,266.502 189.534,265.003C184.32,261.495 178.928,257.863 176.073,252.204C173.686,247.475 174.01,241.603 176.918,236.88C179.746,232.282 184.545,229.538 189.753,229.538C194.693,229.538 200.851,232.207 202.528,237.152C203.58,240.248 202.964,243.137 200.843,245.08C198.619,247.117 195.153,247.697 192.417,246.495C190.074,245.462 188.73,243.341 188.73,240.673C188.73,239.523 189.031,238.388 189.596,237.389C190.153,236.4 191.407,236.055 192.392,236.617C193.378,237.175 193.723,238.429 193.166,239.411C192.944,239.802 192.833,240.225 192.833,240.673C192.833,241.696 193.237,242.372 194.069,242.74C195.303,243.283 197.063,242.98 198.073,242.054C198.978,241.227 199.168,240.021 198.645,238.471C197.631,235.488 193.241,233.64 189.753,233.64C185.923,233.64 182.52,235.605 180.412,239.031C178.244,242.548 177.987,246.888 179.734,250.356C182.108,255.059 187.048,258.387 191.825,261.602C194.036,263.092 196.323,264.631 198.312,266.286C199.158,266.988 200.162,267.711 201.221,268.474C205.537,271.593 210.911,275.473 210.911,281.303C210.911,286.959 206.307,291.559 200.653,291.559Z" style="fill:rgb(234,233,233);fill-rule:nonzero;"/>
            <path d="M287.32,291.559C281.664,291.559 277.064,286.959 277.064,281.303C277.064,275.473 282.436,271.593 286.752,268.474C287.809,267.711 288.816,266.988 289.662,266.286C291.652,264.631 293.936,263.092 296.148,261.602C300.928,258.387 305.863,255.059 308.238,250.356C309.988,246.888 309.727,242.548 307.563,239.03C305.453,235.605 302.049,233.64 298.219,233.64C294.732,233.64 290.342,235.488 289.33,238.471C288.803,240.021 288.994,241.227 289.9,242.054C290.912,242.98 292.668,243.283 293.902,242.74C294.734,242.372 295.141,241.696 295.141,240.673C295.141,240.225 295.027,239.802 294.807,239.411C294.248,238.429 294.594,237.175 295.58,236.617C296.563,236.055 297.818,236.4 298.377,237.389C298.943,238.388 299.242,239.523 299.242,240.673C299.242,243.341 297.898,245.462 295.555,246.495C292.816,247.695 289.352,247.117 287.127,245.08C285.008,243.137 284.395,240.248 285.443,237.152C287.123,232.207 293.279,229.538 298.219,229.538C303.428,229.538 308.225,232.282 311.055,236.88C313.963,241.602 314.287,247.475 311.902,252.204C309.045,257.863 303.652,261.495 298.438,265.003C296.215,266.502 294.115,267.917 292.283,269.44C291.375,270.198 290.293,270.979 289.152,271.804C285.41,274.505 281.166,277.571 281.166,281.303C281.166,284.697 283.926,287.458 287.32,287.458C290.713,287.458 293.475,284.697 293.475,281.303C293.475,280.171 294.393,279.251 295.525,279.251C296.658,279.251 297.574,280.171 297.574,281.303C297.574,286.959 292.977,291.559 287.32,291.559Z" style="fill:rgb(201,202,204);fill-rule:nonzero;"/>
            <path d="M247.545,193.569C247.465,193.569 247.382,193.559 247.299,193.541C246.8,193.418 246.473,192.947 246.525,192.44C247.006,187.746 246.55,183.072 245.173,178.546C240.607,163.536 227.011,153.451 211.335,153.451C207.855,153.451 204.389,153.971 201.023,154.993C200.928,155.021 200.812,155.038 200.711,155.038C200.321,155.038 199.908,154.782 199.737,154.437C199.595,154.156 199.592,153.823 199.726,153.538C200.121,152.703 206.87,149.643 208.449,149.161C211.573,148.214 214.793,147.731 218.029,147.731C232.596,147.731 245.235,157.104 249.479,171.055C251.654,178.214 251.306,185.982 248.496,192.93C248.337,193.322 247.955,193.569 247.545,193.569Z" style="fill:rgb(243,122,110);fill-rule:nonzero;"/>
            <path d="M249.479,171.055C245.235,157.104 232.596,147.731 218.029,147.731C214.793,147.731 211.573,148.214 208.449,149.161C206.87,149.643 200.121,152.703 199.726,153.538C199.691,153.611 199.693,153.686 199.677,153.762C201.762,152.529 206.036,150.629 207.256,150.259C210.377,149.311 213.599,148.827 216.834,148.827C231.4,148.827 244.039,158.201 248.28,172.149C250.412,179.152 250.107,186.729 247.465,193.559C247.491,193.563 247.519,193.569 247.545,193.569C247.955,193.569 248.337,193.322 248.496,192.93C251.306,185.982 251.654,178.214 249.479,171.055Z" style="fill:rgb(213,85,82);fill-rule:nonzero;"/>
            <path d="M268.471,213.855C268.539,213.884 268.607,213.901 268.686,213.907C269.135,213.955 269.549,213.662 269.66,213.223C270.664,209.158 272.443,205.393 274.949,202.024C283.256,190.859 297.633,186.51 310.717,191.2C313.623,192.245 316.359,193.715 318.865,195.58C318.943,195.633 319.029,195.68 319.113,195.709C319.439,195.824 319.859,195.736 320.111,195.497C320.313,195.308 320.412,195.029 320.385,194.752C320.309,193.938 315.592,189.358 314.41,188.484C312.09,186.757 309.545,185.389 306.842,184.421C294.678,180.059 281.316,184.102 273.598,194.48C269.639,199.807 267.6,206.398 267.867,213.039C267.883,213.417 268.127,213.737 268.471,213.855Z" style="fill:rgb(101,190,224);fill-rule:nonzero;"/>
            <path d="M273.986,195.772C281.707,185.396 295.068,181.354 307.23,185.715C309.934,186.686 312.48,188.051 314.801,189.779C315.764,190.493 319.055,193.654 320.281,195.24C320.354,195.09 320.402,194.924 320.385,194.752C320.309,193.938 315.592,189.358 314.41,188.484C312.09,186.757 309.545,185.389 306.842,184.421C294.678,180.059 281.316,184.102 273.598,194.48C269.639,199.807 267.6,206.398 267.867,213.039C267.879,213.322 268.043,213.542 268.258,213.702C268.141,207.277 270.152,200.931 273.986,195.772Z" style="fill:rgb(30,162,203);fill-rule:nonzero;"/>
            <path d="M217.418,223.449C217.363,223.462 217.3,223.47 217.237,223.468C216.858,223.459 216.543,223.175 216.497,222.799C216.085,219.322 214.998,216.014 213.264,212.962C207.528,202.834 196.053,197.739 184.706,200.28C182.185,200.844 179.761,201.78 177.494,203.068C177.429,203.104 177.347,203.135 177.272,203.149C176.991,203.214 176.653,203.097 176.47,202.873C176.321,202.694 176.265,202.452 176.317,202.225C176.466,201.555 180.856,198.249 181.923,197.642C184.027,196.45 186.284,195.58 188.625,195.056C199.17,192.693 209.839,197.43 215.167,206.838C217.907,211.668 218.912,217.349 218.005,222.832C217.952,223.144 217.717,223.384 217.418,223.449Z" style="fill:rgb(243,122,110);fill-rule:nonzero;"/>
            <path d="M215.167,206.838C209.839,197.43 199.17,192.693 188.625,195.056C186.284,195.58 184.027,196.45 181.923,197.642C180.856,198.249 176.466,201.555 176.317,202.225C176.265,202.452 176.321,202.694 176.47,202.873C176.491,202.9 176.534,202.911 176.562,202.935C177.878,201.7 180.629,199.661 181.446,199.195C183.553,198.003 185.806,197.132 188.147,196.608C198.694,194.246 209.359,198.983 214.692,208.394C217.251,212.907 218.275,218.168 217.657,223.314C217.829,223.202 217.97,223.047 218.005,222.832C218.912,217.349 217.907,211.668 215.167,206.838Z" style="fill:rgb(213,85,82);fill-rule:nonzero;"/>
            <path d="M210.653,224.537L210.653,284.793C210.653,301.417 222.742,315.182 238.602,317.873L238.602,334.276C238.602,337.157 237.293,339.884 235.046,341.687L226.737,348.341C226.337,348.662 226.181,349.201 226.352,349.687C226.521,350.171 226.981,350.494 227.494,350.494L260.454,350.494C260.967,350.494 261.424,350.167 261.596,349.684C261.765,349.195 261.605,348.658 261.204,348.34L253.474,342.197C251.208,340.398 249.884,337.66 249.884,334.764L249.884,317.866C265.461,315.187 277.318,301.646 277.318,285.307L277.318,224.537L210.653,224.537Z" style="fill:rgb(246,188,98);fill-rule:nonzero;"/>
            <path d="M243.987,224.537L243.987,350.494L260.454,350.494C260.967,350.494 261.424,350.167 261.596,349.684C261.765,349.195 261.605,348.658 261.204,348.34L253.474,342.197C251.208,340.398 249.884,337.66 249.884,334.764L249.884,317.866C265.461,315.187 277.318,301.646 277.318,285.307L277.318,224.537L243.987,224.537Z" style="fill:rgb(248,151,70);fill-rule:nonzero;"/>
            <path d="M262.703,323.596C262.703,326.78 260.121,329.363 256.936,329.363L231.549,329.363C228.363,329.363 225.781,326.78 225.781,323.596C225.781,320.365 228.404,317.742 231.636,317.742L256.936,317.742C260.121,317.742 262.703,320.324 262.703,323.51L262.703,323.596Z" style="fill:rgb(101,190,224);fill-rule:nonzero;"/>
            <path d="M244.244,317.742L244.244,329.363L256.936,329.363C260.121,329.363 262.703,326.78 262.703,323.596L262.703,323.51C262.703,320.323 260.121,317.742 256.936,317.742L244.244,317.742Z" style="fill:rgb(30,162,203);fill-rule:nonzero;"/>
            <path d="M210.653,248.382L204.627,248.382C202.716,248.382 201.165,246.834 201.165,244.919L201.165,234.152C201.165,232.239 202.716,230.689 204.627,230.689L210.653,230.689L210.653,248.382Z" style="fill:rgb(243,122,110);fill-rule:nonzero;"/>
            <path d="M277.318,248.382L283.346,248.382C285.26,248.382 286.807,246.834 286.807,244.919L286.807,234.152C286.807,232.239 285.26,230.689 283.346,230.689L277.318,230.689L277.318,248.382Z" style="fill:rgb(213,85,82);fill-rule:nonzero;"/>
            <path d="M251.668,282.748C251.17,282.748 250.768,282.347 250.768,281.848L250.768,240.867C250.768,240.131 250.172,239.535 249.435,239.535L244.595,239.535C243.973,239.535 243.434,239.968 243.295,240.574C243.246,240.799 243.183,241.046 243.105,241.319C242.715,242.652 242.143,243.723 241.387,244.519C240.283,245.687 238.85,246.47 237.088,246.857C236.159,247.065 234.645,247.229 232.545,247.349C231.84,247.392 231.289,247.973 231.289,248.676L231.289,252.048C231.289,252.786 231.885,253.382 232.62,253.382L241.335,253.382C241.579,253.382 241.781,253.581 241.781,253.83L241.781,281.848C241.781,282.347 241.379,282.748 240.881,282.748L230.022,282.748C228.942,282.748 228.068,283.622 228.068,284.701L228.068,289.78C228.068,290.858 228.942,291.733 230.022,291.733L262.529,291.733C263.605,291.733 264.48,290.858 264.48,289.78L264.48,284.701C264.48,283.622 263.605,282.748 262.529,282.748L251.668,282.748Z" style="fill:rgb(243,122,110);fill-rule:nonzero;"/>
            <path d="M219.772,167.612C219.772,170.241 217.641,172.373 215.012,172.373C212.382,172.373 210.253,170.241 210.253,167.612C210.253,164.982 212.382,162.855 215.012,162.855C217.641,162.855 219.772,164.982 219.772,167.612Z" style="fill:rgb(246,188,98);fill-rule:nonzero;"/>
            <path d="M215.012,162.855L215.012,172.373C217.641,172.373 219.772,170.241 219.772,167.612C219.772,164.982 217.641,162.855 215.012,162.855Z" style="fill:rgb(248,151,70);fill-rule:nonzero;"/>
            <path d="M304.039,168.014C304.039,170.075 302.367,171.749 300.307,171.749C298.244,171.749 296.572,170.075 296.572,168.014C296.572,165.952 298.244,164.279 300.307,164.279C302.367,164.279 304.039,165.952 304.039,168.014Z" style="fill:rgb(234,233,233);fill-rule:nonzero;"/>
            <path d="M300.307,164.279L300.307,171.749C302.367,171.749 304.039,170.075 304.039,168.014C304.039,165.952 302.367,164.279 300.307,164.279Z" style="fill:rgb(201,202,204);fill-rule:nonzero;"/>
            <path d="M267.844,188.416C267.844,190.273 266.342,191.78 264.48,191.78C262.623,191.78 261.118,190.273 261.118,188.416C261.118,186.559 262.623,185.053 264.48,185.053C266.342,185.053 267.844,186.559 267.844,188.416Z" style="fill:rgb(246,188,98);fill-rule:nonzero;"/>
            <path d="M264.48,185.053L264.48,191.78C266.342,191.78 267.844,190.273 267.844,188.416C267.844,186.559 266.342,185.053 264.48,185.053Z" style="fill:rgb(248,151,70);fill-rule:nonzero;"/>
            <path d="M262.352,208.494C262.352,210.12 261.035,211.436 259.41,211.436C257.784,211.436 256.467,210.12 256.467,208.494C256.467,206.868 257.784,205.554 259.41,205.554C261.035,205.554 262.352,206.868 262.352,208.494Z" style="fill:rgb(101,190,224);fill-rule:nonzero;"/>
            <path d="M259.41,205.554L259.41,211.436C261.035,211.436 262.352,210.12 262.352,208.494C262.352,206.868 261.035,205.554 259.41,205.554Z" style="fill:rgb(30,162,203);fill-rule:nonzero;"/>
            <path d="M245.065,213.919C245.065,215.981 243.396,217.65 241.332,217.65C239.271,217.65 237.6,215.981 237.6,213.919C237.6,211.857 239.271,210.187 241.332,210.187C243.396,210.187 245.065,211.857 245.065,213.919Z" style="fill:rgb(234,233,233);fill-rule:nonzero;"/>
            <path d="M241.332,210.187L241.332,217.65C243.396,217.65 245.065,215.981 245.065,213.919C245.065,211.857 243.396,210.187 241.332,210.187Z" style="fill:rgb(201,202,204);fill-rule:nonzero;"/>
            <path d="M286.807,215.592C286.807,217.654 285.135,219.324 283.074,219.324C281.012,219.324 279.34,217.654 279.34,215.592C279.34,213.528 281.012,211.859 283.074,211.859C285.135,211.859 286.807,213.528 286.807,215.592Z" style="fill:rgb(246,188,98);fill-rule:nonzero;"/>
            <path d="M283.074,211.859L283.074,219.324C285.135,219.324 286.807,217.654 286.807,215.592C286.807,213.528 285.135,211.859 283.074,211.859Z" style="fill:rgb(248,151,70);fill-rule:nonzero;"/>
            <path d="M197.315,215.592C197.315,218.142 195.247,220.21 192.698,220.21C190.147,220.21 188.079,218.142 188.079,215.592C188.079,213.04 190.147,210.974 192.698,210.974C195.247,210.974 197.315,213.04 197.315,215.592Z" style="fill:rgb(101,190,224);fill-rule:nonzero;"/>
            <path d="M192.698,210.974L192.698,220.21C195.247,220.21 197.315,218.142 197.315,215.592C197.315,213.04 195.247,210.974 192.698,210.974Z" style="fill:rgb(30,162,203);fill-rule:nonzero;"/>
            <path d="M191.073,165.051C191.263,164.862 191.543,164.793 191.797,164.874C192.056,164.958 192.242,165.183 192.279,165.448L193.237,172.186C193.329,172.837 193.735,173.4 194.323,173.692L200.414,176.722C200.656,176.842 200.808,177.088 200.808,177.356C200.806,177.628 200.652,177.874 200.411,177.992L194.3,180.982C193.708,181.273 193.298,181.833 193.203,182.481L192.201,189.214C192.161,189.481 191.976,189.702 191.719,189.783C191.462,189.865 191.181,189.798 190.993,189.601L186.259,184.713C185.804,184.241 185.143,184.023 184.495,184.133L177.786,185.262C177.521,185.308 177.252,185.198 177.094,184.979C176.937,184.761 176.918,184.472 177.043,184.233L180.229,178.221C180.538,177.64 180.539,176.946 180.233,176.363L177.088,170.329C176.963,170.093 176.985,169.804 177.145,169.584C177.304,169.368 177.572,169.259 177.839,169.305L184.539,170.479C185.187,170.593 185.848,170.379 186.31,169.909L191.073,165.051Z" style="fill:rgb(246,188,98);fill-rule:nonzero;"/>
            <path d="M191.797,164.874L185.449,184.205C185.753,184.306 186.033,184.477 186.259,184.713L190.993,189.601C191.073,189.684 191.174,189.745 191.28,189.782C191.418,189.823 191.572,189.828 191.717,189.782C191.976,189.7 192.161,189.479 192.201,189.213L193.203,182.481C193.298,181.831 193.708,181.272 194.298,180.981L200.411,177.989C200.65,177.871 200.804,177.626 200.806,177.356C200.808,177.086 200.653,176.842 200.413,176.722L194.321,173.691C193.734,173.399 193.327,172.837 193.234,172.185L192.279,165.448C192.242,165.183 192.056,164.958 191.797,164.874Z" style="fill:rgb(248,151,70);fill-rule:nonzero;"/>
            <path d="M229.416,182.966C229.506,182.777 229.697,182.66 229.904,182.66C230.113,182.66 230.302,182.777 230.395,182.966L232.721,187.675C232.945,188.131 233.378,188.444 233.879,188.52L239.077,189.273C239.281,189.305 239.455,189.447 239.518,189.644C239.583,189.844 239.527,190.06 239.381,190.205L235.619,193.874C235.256,194.225 235.09,194.735 235.176,195.235L236.065,200.413C236.1,200.619 236.014,200.826 235.846,200.95C235.678,201.07 235.456,201.086 235.271,200.988L230.621,198.543C230.175,198.308 229.637,198.308 229.188,198.543L224.539,200.988C224.355,201.086 224.133,201.07 223.963,200.95C223.796,200.826 223.713,200.619 223.747,200.413L224.635,195.235C224.719,194.735 224.555,194.225 224.192,193.874L220.432,190.205C220.282,190.06 220.229,189.844 220.292,189.644C220.357,189.447 220.527,189.305 220.733,189.273L225.928,188.52C226.433,188.444 226.865,188.131 227.09,187.675L229.416,182.966Z" style="fill:rgb(101,190,224);fill-rule:nonzero;"/>
            <path d="M229.904,182.66L229.904,198.368C230.152,198.368 230.397,198.426 230.621,198.546L235.271,200.988C235.352,201.031 235.439,201.052 235.523,201.052C235.639,201.052 235.752,201.018 235.846,200.95C236.014,200.826 236.1,200.619 236.063,200.413L235.176,195.235C235.09,194.735 235.256,194.226 235.619,193.871L239.381,190.205C239.527,190.06 239.583,189.844 239.518,189.644C239.455,189.447 239.281,189.305 239.077,189.273L233.879,188.52C233.378,188.444 232.945,188.131 232.721,187.675L230.395,182.966C230.302,182.78 230.113,182.66 229.904,182.66Z" style="fill:rgb(30,162,203);fill-rule:nonzero;"/>
            <path d="M276.264,147.165C276.471,146.969 276.771,146.908 277.039,147.01C277.305,147.107 277.492,147.353 277.521,147.634L278.26,154.807C278.332,155.498 278.738,156.111 279.35,156.444L285.672,159.9C285.922,160.039 286.072,160.306 286.063,160.59C286.049,160.875 285.879,161.129 285.617,161.246L279.025,164.163C278.389,164.445 277.932,165.021 277.803,165.705L276.469,172.79C276.416,173.068 276.207,173.295 275.932,173.373C275.658,173.448 275.365,173.362 275.174,173.151L270.363,167.782C269.896,167.265 269.207,167.008 268.518,167.096L261.371,168.018C261.088,168.055 260.808,167.927 260.65,167.69C260.492,167.452 260.484,167.146 260.627,166.898L264.244,160.66C264.592,160.059 264.623,159.324 264.324,158.695L261.243,152.183C261.121,151.923 261.156,151.62 261.334,151.396C261.508,151.172 261.797,151.065 262.078,151.129L269.123,152.642C269.803,152.786 270.512,152.59 271.018,152.113L276.264,147.165Z" style="fill:rgb(234,233,233);fill-rule:nonzero;"/>
            <path d="M277.039,147.01L269.525,167.211C269.844,167.329 270.131,167.525 270.363,167.782L275.174,173.151C275.258,173.244 275.357,173.313 275.469,173.354C275.613,173.408 275.775,173.416 275.932,173.373C276.207,173.295 276.412,173.068 276.469,172.79L277.803,165.705C277.932,165.021 278.389,164.445 279.025,164.163L285.617,161.247C285.879,161.129 286.051,160.877 286.063,160.59C286.072,160.306 285.922,160.039 285.672,159.903L279.348,156.444C278.738,156.111 278.328,155.498 278.26,154.807L277.521,147.636C277.492,147.353 277.305,147.107 277.039,147.01Z" style="fill:rgb(201,202,204);fill-rule:nonzero;"/>
            <path d="M303.535,197.759C303.631,197.569 303.824,197.445 304.037,197.445C304.25,197.445 304.447,197.566 304.541,197.759L306.93,202.594C307.158,203.06 307.604,203.384 308.119,203.458L313.453,204.234C313.664,204.264 313.84,204.411 313.908,204.615C313.973,204.818 313.918,205.042 313.764,205.188L309.906,208.951C309.535,209.314 309.365,209.838 309.451,210.352L310.359,215.666C310.398,215.875 310.311,216.089 310.137,216.215C309.963,216.341 309.736,216.356 309.545,216.258L304.775,213.748C304.313,213.504 303.764,213.504 303.301,213.748L298.533,216.258C298.346,216.355 298.115,216.341 297.945,216.215C297.771,216.086 297.684,215.875 297.721,215.663L298.633,210.352C298.719,209.838 298.549,209.314 298.176,208.951L294.316,205.188C294.164,205.042 294.107,204.818 294.176,204.615C294.242,204.411 294.416,204.264 294.627,204.234L299.959,203.458C300.473,203.384 300.92,203.06 301.15,202.594L303.535,197.759Z" style="fill:rgb(243,122,110);fill-rule:nonzero;"/>
            <path d="M304.039,197.445L304.039,213.563C304.293,213.563 304.545,213.627 304.775,213.745L309.545,216.258C309.629,216.3 309.721,216.32 309.809,216.32C309.926,216.32 310.041,216.285 310.137,216.215C310.313,216.089 310.398,215.875 310.363,215.663L309.451,210.352C309.363,209.838 309.531,209.314 309.906,208.951L313.764,205.191C313.916,205.042 313.973,204.817 313.908,204.615C313.84,204.411 313.664,204.264 313.453,204.234L308.119,203.458C307.604,203.384 307.16,203.061 306.93,202.594L304.541,197.761C304.447,197.569 304.252,197.448 304.039,197.445Z" style="fill:rgb(213,85,82);fill-rule:nonzero;"/>
            <path d="M262.529,282.748L251.667,282.748C251.169,282.748 250.766,282.347 250.766,281.848L250.766,240.867C250.766,240.131 250.171,239.535 249.435,239.535L244.598,239.535C244.375,239.535 244.172,239.605 243.987,239.703L243.987,291.735L262.529,291.735C263.605,291.735 264.48,290.859 264.48,289.78L264.48,284.704C264.48,283.622 263.605,282.748 262.529,282.748Z" style="fill:rgb(213,85,82);fill-rule:nonzero;"/>
        </g>
    </g>
</svg>
